<?xml version="1.0" encoding="UTF-8" standalone="no"?>
<!-- Created with Inkscape (http://www.inkscape.org/) -->

<svg
   xmlns:dc="http://purl.org/dc/elements/1.1/"
   xmlns:cc="http://creativecommons.org/ns#"
   xmlns:rdf="http://www.w3.org/1999/02/22-rdf-syntax-ns#"
   xmlns:svg="http://www.w3.org/2000/svg"
   xmlns="http://www.w3.org/2000/svg"
   xmlns:sodipodi="http://sodipodi.sourceforge.net/DTD/sodipodi-0.dtd"
   xmlns:inkscape="http://www.inkscape.org/namespaces/inkscape"
   width="300"
   height="300"
   viewBox="0 0 79.374998 79.375002"
   version="1.1"
   id="svg88"
   inkscape:version="0.92.1 r15371"
   sodipodi:docname="vimix-logo.svg">
  <defs
     id="defs82">
    <filter
       style="color-interpolation-filters:sRGB"
       inkscape:label="Drop Shadow"
       id="filter1304">
      <feFlood
         flood-opacity="0.498039"
         flood-color="rgb(0,0,0)"
         result="flood"
         id="feFlood1294" />
      <feComposite
         in="flood"
         in2="SourceGraphic"
         operator="in"
         result="composite1"
         id="feComposite1296" />
      <feGaussianBlur
         in="composite1"
         stdDeviation="3"
         result="blur"
         id="feGaussianBlur1298" />
      <feOffset
         dx="1"
         dy="1"
         result="offset"
         id="feOffset1300" />
      <feComposite
         in="SourceGraphic"
         in2="offset"
         operator="over"
         result="composite2"
         id="feComposite1302" />
    </filter>
    <filter
       style="color-interpolation-filters:sRGB"
       inkscape:label="Drop Shadow"
       id="filter1316">
      <feFlood
         flood-opacity="0.498039"
         flood-color="rgb(0,0,0)"
         result="flood"
         id="feFlood1306" />
      <feComposite
         in="flood"
         in2="SourceGraphic"
         operator="in"
         result="composite1"
         id="feComposite1308" />
      <feGaussianBlur
         in="composite1"
         stdDeviation="2"
         result="blur"
         id="feGaussianBlur1310" />
      <feOffset
         dx="1"
         dy="1"
         result="offset"
         id="feOffset1312" />
      <feComposite
         in="SourceGraphic"
         in2="offset"
         operator="over"
         result="composite2"
         id="feComposite1314" />
    </filter>
  </defs>
  <sodipodi:namedview
     id="base"
     pagecolor="#ffffff"
     bordercolor="#666666"
     borderopacity="1.0"
     inkscape:pageopacity="0.0"
     inkscape:pageshadow="2"
     inkscape:zoom="0.98994949"
     inkscape:cx="30.249074"
     inkscape:cy="158.86467"
     inkscape:document-units="mm"
     inkscape:current-layer="layer1"
     showgrid="false"
     units="px"
     inkscape:window-width="1366"
     inkscape:window-height="682"
     inkscape:window-x="0"
     inkscape:window-y="0"
     inkscape:window-maximized="1" />
  <metadata
     id="metadata85">
    <rdf:RDF>
      <cc:Work
         rdf:about="">
        <dc:format>image/svg+xml</dc:format>
        <dc:type
           rdf:resource="http://purl.org/dc/dcmitype/StillImage" />
        <dc:title />
      </cc:Work>
    </rdf:RDF>
  </metadata>
  <g
     inkscape:label="Layer 1"
     inkscape:groupmode="layer"
     id="layer1"
     transform="translate(0,-217.62498)">
    <g
       id="vimix-logo"
       inkscape:label="#vimix-logo">
      <desc
         id="desc65">vimix-gtk-theme-logo</desc>
      <title
         id="title63">vimix-logo</title>
      <circle
         style="opacity:0.8;fill:#f0544c;fill-opacity:1;stroke:none;stroke-width:0.1990924;stroke-opacity:1"
         id="circle1318"
         cx="37.011028"
         cy="258.94995"
         r="20.312487" />
      <circle
         r="20.312487"
         cy="253.85616"
         cx="39.862438"
         id="circle1320"
         style="opacity:0.8;fill:#2eb398;fill-opacity:1;stroke:none;stroke-width:0.1990924;stroke-opacity:1" />
      <circle
         style="opacity:0.8;fill:#4383d3;fill-opacity:1;stroke:none;stroke-width:0.1990924;stroke-opacity:1"
         id="circle1322"
         cx="42.256725"
         cy="259.10287"
         r="20.312487" />
      <circle
         transform="matrix(0.75247527,0,0,0.75247527,-197.42557,133.16877)"
         r="26.994225"
         cy="164.98045"
         cx="315.11078"
         id="path1262"
         style="opacity:1;fill:#444444;fill-opacity:1;stroke:none;stroke-width:0.26458332;stroke-opacity:1;filter:url(#filter1304)" />
      <g
         id="flowRoot1264"
         style="font-style:italic;font-variant:normal;font-weight:normal;font-stretch:normal;font-size:40px;line-height:1.25;font-family:sans-serif;-inkscape-font-specification:'sans-serif Italic';letter-spacing:0px;word-spacing:0px;fill:#ffffff;fill-opacity:1;stroke:none;filter:url(#filter1316)"
         transform="matrix(0.52839209,0,0,0.52839209,-634.51969,14.645843)"
         aria-label="Vimix">
        <path
           id="path40"
           style="font-style:italic;font-variant:normal;font-weight:normal;font-stretch:normal;font-family:sans-serif;-inkscape-font-specification:'sans-serif Italic'"
           d="m 1253.6852,473.91484 h 4.28 l 15.2,-29.32 h -3.76 l -7.92,15.88 c -1.72,3.44 -3,6.24 -4.76,9.68 h -0.16 c -0.44,-3.44 -0.56,-6.24 -0.92,-9.68 l -1.56,-15.88 h -3.88 z" />
        <path
           id="path42"
           style="font-style:italic;font-variant:normal;font-weight:normal;font-stretch:normal;font-size:18.25597954px;font-family:sans-serif;-inkscape-font-specification:'sans-serif Italic'"
           d="m 1268.9335,473.91484 h 1.6613 l 1.9899,-9.91299 h -1.6613 z m 3.2313,-11.95766 c 0.6572,0 1.2414,-0.4564 1.3692,-1.07711 0.1278,-0.67547 -0.2739,-1.0771 -0.9311,-1.0771 -0.6572,0 -1.2414,0.40163 -1.3692,1.0771 -0.1278,0.62071 0.2738,1.07711 0.9311,1.07711 z" />
        <path
           id="path44"
           style="font-style:italic;font-variant:normal;font-weight:normal;font-stretch:normal;font-size:18.25597954px;font-family:sans-serif;-inkscape-font-specification:'sans-serif Italic'"
           d="m 1273.961,473.91484 h 1.6613 l 1.4422,-7.19285 c 1.1136,-1.02234 2.0447,-1.51525 2.7932,-1.51525 1.2596,0 1.6978,0.78501 1.3144,2.64712 l -1.2049,6.06098 h 1.6613 l 1.4422,-7.19285 c 1.1319,-1.02234 2.0264,-1.51525 2.7932,-1.51525 1.2596,0 1.6978,0.78501 1.3144,2.64712 l -1.2049,6.06098 h 1.6613 l 1.2597,-6.28005 c 0.5111,-2.53758 -0.2008,-3.88853 -2.2455,-3.88853 -1.2049,0 -2.3915,0.78501 -3.633,1.89863 -0.1825,-1.16839 -0.858,-1.89863 -2.3732,-1.89863 -1.1867,0 -2.3733,0.7485 -3.4139,1.69781 h -0.055 l 0.1461,-1.44222 h -1.3692 z" />
        <path
           id="path46"
           style="font-style:italic;font-variant:normal;font-weight:normal;font-stretch:normal;font-size:18.25597954px;font-family:sans-serif;-inkscape-font-specification:'sans-serif Italic'"
           d="m 1290.862,473.91484 h 1.6613 l 1.9899,-9.91299 h -1.6613 z m 3.2313,-11.95766 c 0.6572,0 1.2414,-0.4564 1.3692,-1.07711 0.1278,-0.67547 -0.2738,-1.0771 -0.931,-1.0771 -0.6572,0 -1.2414,0.40163 -1.3692,1.0771 -0.1278,0.62071 0.2738,1.07711 0.931,1.07711 z" />
        <path
           id="path48"
           style="font-style:italic;font-variant:normal;font-weight:normal;font-stretch:normal;font-size:18.25597954px;font-family:sans-serif;-inkscape-font-specification:'sans-serif Italic'"
           d="m 1294.4838,473.91484 h 1.7526 l 1.7891,-2.31851 c 0.4747,-0.60244 0.9311,-1.20489 1.3875,-1.77083 h 0.091 c 0.2556,0.56594 0.4929,1.16839 0.6938,1.77083 l 1.004,2.31851 h 1.8256 l -2.2637,-5.00213 3.9981,-4.91086 h -1.7344 l -1.6613,2.19071 c -0.4016,0.54768 -0.8032,1.09536 -1.2231,1.64304 h -0.073 c -0.2191,-0.54768 -0.4564,-1.09536 -0.6572,-1.64304 l -0.8946,-2.19071 h -1.7891 l 2.0629,4.74655 z" />
      </g>
    </g>
  </g>
</svg>
