<?xml version="1.0" encoding="UTF-8" standalone="no"?>
<!-- Created with Inkscape (http://www.inkscape.org/) -->

<svg
   xmlns:dc="http://purl.org/dc/elements/1.1/"
   xmlns:cc="http://creativecommons.org/ns#"
   xmlns:rdf="http://www.w3.org/1999/02/22-rdf-syntax-ns#"
   xmlns:svg="http://www.w3.org/2000/svg"
   xmlns="http://www.w3.org/2000/svg"
   xmlns:sodipodi="http://sodipodi.sourceforge.net/DTD/sodipodi-0.dtd"
   xmlns:inkscape="http://www.inkscape.org/namespaces/inkscape"
   width="120"
   height="35"
   viewBox="0 0 31.749999 9.2604167"
   version="1.1"
   id="svg8"
   inkscape:version="0.92.1 r15371"
   sodipodi:docname="thumbnail.svg"
   inkscape:export-filename="/home/vince/桌面/thumbnail.png"
   inkscape:export-xdpi="96"
   inkscape:export-ydpi="96">
  <defs
     id="defs2">
    <filter
       style="color-interpolation-filters:sRGB"
       inkscape:label="Drop Shadow"
       id="filter1304">
      <feFlood
         flood-opacity="0.498039"
         flood-color="rgb(0,0,0)"
         result="flood"
         id="feFlood1294" />
      <feComposite
         in="flood"
         in2="SourceGraphic"
         operator="in"
         result="composite1"
         id="feComposite1296" />
      <feGaussianBlur
         in="composite1"
         stdDeviation="3"
         result="blur"
         id="feGaussianBlur1298" />
      <feOffset
         dx="1"
         dy="1"
         result="offset"
         id="feOffset1300" />
      <feComposite
         in="SourceGraphic"
         in2="offset"
         operator="over"
         result="composite2"
         id="feComposite1302" />
    </filter>
    <filter
       style="color-interpolation-filters:sRGB"
       inkscape:label="Drop Shadow"
       id="filter1316">
      <feFlood
         flood-opacity="0.498039"
         flood-color="rgb(0,0,0)"
         result="flood"
         id="feFlood1306" />
      <feComposite
         in="flood"
         in2="SourceGraphic"
         operator="in"
         result="composite1"
         id="feComposite1308" />
      <feGaussianBlur
         in="composite1"
         stdDeviation="2"
         result="blur"
         id="feGaussianBlur1310" />
      <feOffset
         dx="1"
         dy="1"
         result="offset"
         id="feOffset1312" />
      <feComposite
         in="SourceGraphic"
         in2="offset"
         operator="over"
         result="composite2"
         id="feComposite1314" />
    </filter>
    <filter
       inkscape:collect="always"
       style="color-interpolation-filters:sRGB"
       id="filter929"
       x="-0.072402231"
       width="1.1448045"
       y="-0.14241759"
       height="1.2848352">
      <feGaussianBlur
         inkscape:collect="always"
         stdDeviation="0.51026785"
         id="feGaussianBlur931" />
    </filter>
    <clipPath
       clipPathUnits="userSpaceOnUse"
       id="clipPath1073">
      <rect
         style="opacity:0.5;fill:#ffffff;fill-opacity:1;stroke:none;stroke-width:0.99999994;stroke-opacity:1"
         id="rect1075"
         width="47.142857"
         height="18.303572"
         x="48.471436"
         y="-93.304611"
         transform="rotate(90)" />
    </clipPath>
    <filter
       inkscape:collect="always"
       style="color-interpolation-filters:sRGB"
       id="filter1187"
       x="-0.054852818"
       width="1.1097056"
       y="-0.066213197"
       height="1.1324264">
      <feGaussianBlur
         inkscape:collect="always"
         stdDeviation="0.17518914"
         id="feGaussianBlur1189" />
    </filter>
  </defs>
  <sodipodi:namedview
     id="base"
     pagecolor="#ffffff"
     bordercolor="#666666"
     borderopacity="1.0"
     inkscape:pageopacity="0.0"
     inkscape:pageshadow="2"
     inkscape:zoom="2"
     inkscape:cx="45.834911"
     inkscape:cy="20.498902"
     inkscape:document-units="mm"
     inkscape:current-layer="layer1"
     showgrid="false"
     units="px"
     inkscape:window-width="1366"
     inkscape:window-height="682"
     inkscape:window-x="0"
     inkscape:window-y="0"
     inkscape:window-maximized="1"
     inkscape:snap-global="false"
     showguides="true"
     inkscape:guide-bbox="true" />
  <metadata
     id="metadata5">
    <rdf:RDF>
      <cc:Work
         rdf:about="">
        <dc:format>image/svg+xml</dc:format>
        <dc:type
           rdf:resource="http://purl.org/dc/dcmitype/StillImage" />
        <dc:title />
      </cc:Work>
    </rdf:RDF>
  </metadata>
  <g
     inkscape:label="Layer 1"
     inkscape:groupmode="layer"
     id="layer1"
     transform="translate(0,-287.73956)">
    <rect
       ry="0"
       y="287.75299"
       x="-3.5527137e-15"
       height="4.6328959"
       width="31.75"
       id="rect68"
       style="opacity:1;fill:#444444;fill-opacity:1;stroke:none;stroke-width:0.18714294;stroke-opacity:1" />
    <rect
       ry="0.8004601"
       y="286.74738"
       x="1.6765738"
       height="8.598958"
       width="16.914434"
       id="rect90"
       style="opacity:0.25;fill:#000000;fill-opacity:1;stroke:none;stroke-width:0.26458332;stroke-opacity:1;filter:url(#filter929)"
       transform="matrix(0.9397533,0,0,0.92437957,0.79943906,23.544249)" />
    <circle
       r="2.9885781"
       cy="292.82846"
       cx="24.722492"
       id="circle1318"
       style="opacity:0.8;fill:#f0544c;fill-opacity:1;stroke:none;stroke-width:0.02929248;stroke-opacity:1" />
    <circle
       style="opacity:0.8;fill:#2eb398;fill-opacity:1;stroke:none;stroke-width:0.02929248;stroke-opacity:1"
       id="circle1320"
       cx="25.373529"
       cy="291.64905"
       r="2.9885781" />
    <circle
       r="2.9885781"
       cy="292.98325"
       cx="25.990385"
       id="circle1322"
       style="opacity:0.8;fill:#4383d3;fill-opacity:1;stroke:none;stroke-width:0.02929248;stroke-opacity:1" />
    <circle
       style="opacity:1;fill:#444444;fill-opacity:1;stroke:none;stroke-width:0.26458332;stroke-opacity:1;filter:url(#filter1304)"
       id="path1262"
       cx="315.11078"
       cy="164.98045"
       r="26.994225"
       transform="matrix(0.11071176,0,0,0.11071176,-9.538677,274.18999)" />
    <rect
       style="opacity:1;fill:#f9f9f9;fill-opacity:1;stroke:none;stroke-width:0.2468462;stroke-opacity:1"
       id="rect64"
       width="15.780525"
       height="8.0225019"
       x="2.2435255"
       y="288.37195"
       ry="0.74679893" />
    <path
       style="opacity:1;fill:#444444;fill-opacity:1;stroke:none;stroke-width:0.2468462;stroke-opacity:1"
       d="m 2.2433477,292.38898 v 3.25866 c 0,0.41373 0.3330797,0.74681 0.7468063,0.74681 h 14.287188 c 0.413727,0 0.746807,-0.33308 0.746807,-0.74681 v -3.25866 z"
       id="rect933"
       inkscape:connector-curvature="0" />
    <g
       id="g962"
       style="font-style:italic;font-variant:normal;font-weight:normal;font-stretch:normal;font-size:40px;line-height:1.25;font-family:sans-serif;-inkscape-font-specification:'sans-serif Italic';letter-spacing:0px;word-spacing:0px;fill:#ffffff;fill-opacity:1;stroke:none;filter:url(#filter1316)"
       transform="matrix(0.18817338,0,0,0.18817338,-230.09321,206.27222)"
       aria-label="Vimix">
      <path
         inkscape:connector-curvature="0"
         id="path952"
         style="font-style:italic;font-variant:normal;font-weight:normal;font-stretch:normal;font-family:sans-serif;-inkscape-font-specification:'sans-serif Italic'"
         d="m 1253.6852,473.91484 h 4.28 l 15.2,-29.32 h -3.76 l -7.92,15.88 c -1.72,3.44 -3,6.24 -4.76,9.68 h -0.16 c -0.44,-3.44 -0.56,-6.24 -0.92,-9.68 l -1.56,-15.88 h -3.88 z" />
      <path
         inkscape:connector-curvature="0"
         id="path954"
         style="font-style:italic;font-variant:normal;font-weight:normal;font-stretch:normal;font-size:18.25597954px;font-family:sans-serif;-inkscape-font-specification:'sans-serif Italic'"
         d="m 1268.9335,473.91484 h 1.6613 l 1.9899,-9.91299 h -1.6613 z m 3.2313,-11.95766 c 0.6572,0 1.2414,-0.4564 1.3692,-1.07711 0.1278,-0.67547 -0.2739,-1.0771 -0.9311,-1.0771 -0.6572,0 -1.2414,0.40163 -1.3692,1.0771 -0.1278,0.62071 0.2738,1.07711 0.9311,1.07711 z" />
      <path
         inkscape:connector-curvature="0"
         id="path956"
         style="font-style:italic;font-variant:normal;font-weight:normal;font-stretch:normal;font-size:18.25597954px;font-family:sans-serif;-inkscape-font-specification:'sans-serif Italic'"
         d="m 1273.961,473.91484 h 1.6613 l 1.4422,-7.19285 c 1.1136,-1.02234 2.0447,-1.51525 2.7932,-1.51525 1.2596,0 1.6978,0.78501 1.3144,2.64712 l -1.2049,6.06098 h 1.6613 l 1.4422,-7.19285 c 1.1319,-1.02234 2.0264,-1.51525 2.7932,-1.51525 1.2596,0 1.6978,0.78501 1.3144,2.64712 l -1.2049,6.06098 h 1.6613 l 1.2597,-6.28005 c 0.5111,-2.53758 -0.2008,-3.88853 -2.2455,-3.88853 -1.2049,0 -2.3915,0.78501 -3.633,1.89863 -0.1825,-1.16839 -0.858,-1.89863 -2.3732,-1.89863 -1.1867,0 -2.3733,0.7485 -3.4139,1.69781 h -0.055 l 0.1461,-1.44222 h -1.3692 z" />
      <path
         inkscape:connector-curvature="0"
         id="path958"
         style="font-style:italic;font-variant:normal;font-weight:normal;font-stretch:normal;font-size:18.25597954px;font-family:sans-serif;-inkscape-font-specification:'sans-serif Italic'"
         d="m 1290.862,473.91484 h 1.6613 l 1.9899,-9.91299 h -1.6613 z m 3.2313,-11.95766 c 0.6572,0 1.2414,-0.4564 1.3692,-1.07711 0.1278,-0.67547 -0.2738,-1.0771 -0.931,-1.0771 -0.6572,0 -1.2414,0.40163 -1.3692,1.0771 -0.1278,0.62071 0.2738,1.07711 0.931,1.07711 z" />
      <path
         inkscape:connector-curvature="0"
         id="path960"
         style="font-style:italic;font-variant:normal;font-weight:normal;font-stretch:normal;font-size:18.25597954px;font-family:sans-serif;-inkscape-font-specification:'sans-serif Italic'"
         d="m 1294.4838,473.91484 h 1.7526 l 1.7891,-2.31851 c 0.4747,-0.60244 0.9311,-1.20489 1.3875,-1.77083 h 0.091 c 0.2556,0.56594 0.4929,1.16839 0.6938,1.77083 l 1.004,2.31851 h 1.8256 l -2.2637,-5.00213 3.9981,-4.91086 h -1.7344 l -1.6613,2.19071 c -0.4016,0.54768 -0.8032,1.09536 -1.2231,1.64304 h -0.073 c -0.2191,-0.54768 -0.4564,-1.09536 -0.6572,-1.64304 l -0.8946,-2.19071 h -1.7891 l 2.0629,4.74655 z" />
    </g>
    <g
       id="g1216"
       transform="matrix(1.4089019,0,0,1.4089019,-10.435879,-119.76709)">
      <g
         transform="translate(-12.899431)"
         id="g1203">
        <path
           inkscape:transform-center-y="-0.97839103"
           inkscape:connector-curvature="0"
           id="path4392"
           d="m 38.909743,295.09423 a 3.175,3.175 0 0 0 4.490128,0 3.175,3.175 0 0 0 0,-4.49013 3.175,3.175 0 0 0 -4.490128,0 l -2.245064,2.24507 z"
           style="opacity:0.25;fill:#000000;fill-opacity:1;stroke:none;stroke-width:0.26458332;filter:url(#filter1187)"
           transform="matrix(0.39367472,0,0,0.39367472,22.306828,177.38322)" />
        <g
           id="g1085"
           transform="matrix(0.38541666,0,0,0.38541666,26.479073,173.06295)">
          <g
             inkscape:label="#g4396"
             inkscape:transform-center-x="3"
             transform="matrix(0,-0.26458333,0.26458333,0,11.250343,329.93199)"
             id="slider-vert-scale-has-marks-above-insensitive">
            <path
               inkscape:transform-center-y="-2.4852819"
               inkscape:connector-curvature="0"
               style="color:#000000;clip-rule:nonzero;display:inline;overflow:visible;visibility:visible;opacity:1;isolation:auto;mix-blend-mode:normal;color-interpolation:sRGB;color-interpolation-filters:linearRGB;solid-color:#000000;solid-opacity:1;fill:#f5f5f5;fill-opacity:1;fill-rule:nonzero;stroke:none;stroke-width:1;stroke-linecap:butt;stroke-linejoin:miter;stroke-miterlimit:4;stroke-dasharray:none;stroke-dashoffset:0;stroke-opacity:1;color-rendering:auto;image-rendering:auto;shape-rendering:auto;text-rendering:auto;enable-background:accumulate"
               d="m 66.514719,66.514719 a 12,12 0 0 0 0,16.970562 12,12 0 0 0 16.970562,0 12,12 0 0 0 0,-16.970562 L 75,58.029437 Z"
               id="path4398" />
            <path
               inkscape:connector-curvature="0"
               id="path4400"
               d="m 66.514719,66.514719 a 12,12 0 0 0 0,16.970562 12,12 0 0 0 16.970562,0 12,12 0 0 0 0,-16.970562 L 75,58.029437 Z m 4.24264,4.24264 L 75,66.514719 l 4.242641,4.24264 a 6,6 0 0 1 0,8.485282 6,6 0 0 1 -8.485282,0 6,6 0 0 1 0,-8.485282 z"
               style="fill:#000000;fill-opacity:0.09599998;stroke:none" />
            <rect
               y="57"
               x="63"
               height="30"
               width="24"
               id="rect4402"
               style="color:#000000;clip-rule:nonzero;display:inline;overflow:visible;visibility:visible;opacity:1;isolation:auto;mix-blend-mode:normal;color-interpolation:sRGB;color-interpolation-filters:linearRGB;solid-color:#000000;solid-opacity:1;fill:none;fill-opacity:1;fill-rule:nonzero;stroke:none;stroke-width:1;stroke-linecap:butt;stroke-linejoin:miter;stroke-miterlimit:4;stroke-dasharray:none;stroke-dashoffset:0;stroke-opacity:1;color-rendering:auto;image-rendering:auto;shape-rendering:auto;text-rendering:auto;enable-background:accumulate" />
          </g>
          <g
             clip-path="url(#clipPath1073)"
             inkscape:label="#g4410"
             inkscape:transform-center-x="3"
             id="slider-vert-scale-has-marks-above-insensitive-dark"
             transform="matrix(0,-0.26458333,0.26458333,0,11.255415,329.93234)">
            <path
               id="path4412"
               d="m 66.514719,66.514719 a 12,12 0 0 0 0,16.970562 12,12 0 0 0 16.970562,0 12,12 0 0 0 0,-16.970562 L 75,58.029437 Z"
               style="color:#000000;clip-rule:nonzero;display:inline;overflow:visible;visibility:visible;opacity:1;isolation:auto;mix-blend-mode:normal;color-interpolation:sRGB;color-interpolation-filters:linearRGB;solid-color:#000000;solid-opacity:1;fill:#555555;fill-opacity:1;fill-rule:nonzero;stroke:none;stroke-width:1;stroke-linecap:butt;stroke-linejoin:miter;stroke-miterlimit:4;stroke-dasharray:none;stroke-dashoffset:0;stroke-opacity:1;color-rendering:auto;image-rendering:auto;shape-rendering:auto;text-rendering:auto;enable-background:accumulate"
               inkscape:connector-curvature="0"
               inkscape:transform-center-y="-2.4852819" />
            <path
               inkscape:connector-curvature="0"
               id="path4414"
               d="m 66.514719,66.514719 a 12,12 0 0 0 0,16.970562 12,12 0 0 0 16.970562,0 12,12 0 0 0 0,-16.970562 L 75,58.029437 Z m 4.24264,4.24264 L 75,66.514719 l 4.242641,4.24264 a 6,6 0 0 1 0,8.485282 6,6 0 0 1 -8.485282,0 6,6 0 0 1 0,-8.485282 z"
               style="color:#000000;clip-rule:nonzero;display:inline;overflow:visible;visibility:visible;opacity:1;isolation:auto;mix-blend-mode:normal;color-interpolation:sRGB;color-interpolation-filters:linearRGB;solid-color:#000000;solid-opacity:1;fill:#ffffff;fill-opacity:0.12000002;fill-rule:nonzero;stroke:none;stroke-width:1;stroke-linecap:butt;stroke-linejoin:miter;stroke-miterlimit:4;stroke-dasharray:none;stroke-dashoffset:0;stroke-opacity:1;color-rendering:auto;image-rendering:auto;shape-rendering:auto;text-rendering:auto;enable-background:accumulate" />
            <rect
               style="color:#000000;clip-rule:nonzero;display:inline;overflow:visible;visibility:visible;opacity:1;isolation:auto;mix-blend-mode:normal;color-interpolation:sRGB;color-interpolation-filters:linearRGB;solid-color:#000000;solid-opacity:1;fill:none;fill-opacity:1;fill-rule:nonzero;stroke:none;stroke-width:1;stroke-linecap:butt;stroke-linejoin:miter;stroke-miterlimit:4;stroke-dasharray:none;stroke-dashoffset:0;stroke-opacity:1;color-rendering:auto;image-rendering:auto;shape-rendering:auto;text-rendering:auto;enable-background:accumulate"
               id="rect4416"
               width="24"
               height="30"
               x="63"
               y="57" />
          </g>
        </g>
      </g>
    </g>
  </g>
</svg>
