<svg width="729" height="148" version="1.1" viewBox="0 0 192.88 39.158" xmlns="http://www.w3.org/2000/svg">
 <defs>
  <filter id="filter4889-3" x="-.033257" y="-.086222" width="1.0665" height="1.1724" color-interpolation-filters="sRGB">
   <feGaussianBlur stdDeviation="0.97"/>
  </filter>
  <filter id="filter4889" x="-.033257" y="-.086222" width="1.0665" height="1.1724" color-interpolation-filters="sRGB">
   <feGaussianBlur stdDeviation="0.97"/>
  </filter>
  <filter id="filter4889-36" x="-.033257" y="-.086222" width="1.0665" height="1.1724" color-interpolation-filters="sRGB">
   <feGaussianBlur stdDeviation="0.97"/>
  </filter>
  <filter id="filter4889-3-5" x="-.033257" y="-.086222" width="1.0665" height="1.1724" color-interpolation-filters="sRGB">
   <feGaussianBlur stdDeviation="0.97"/>
  </filter>
 </defs>
 <rect x=".14578" y=".14999" width="192.59" height="38.867" fill="#e6e6e6" stroke="#f2f2f2" stroke-width=".29156"/>
 <g id="thumbnail-light-ruby" transform="matrix(.26458 0 0 .26458 5.0271 -111.48)">
  <rect x="15" y="477.36" width="120" height="35" fill="#fafbfc" stroke-width="1.4349"/>
  <rect x="19" y="481.86" width="70" height="27" rx="2" ry="2" fill="#000000" filter="url(#filter4889)" opacity=".32"/>
  <path d="m19 494.36v11.5c0 1.108 0.892 2 2 2h66c1.108 0 2-0.892 2-2v-11.5z" fill="#ffffff"/>
  <path d="m35 494.36v3.3653h3.3613c1.0293 0 1.8252-0.2539 2.3887-0.7598s0.8457-1.2007 0.8457-2.086c0-0.1822-0.02037-0.3534-0.05078-0.5195h-1.293c0.03451 0.1636 0.05859 0.3373 0.05859 0.5332 0 0.5511-0.17347 0.9846-0.51953 1.3008-0.34162 0.3117-0.80978 0.4668-1.4043 0.4668h-2.1094v-2.3008h-1.2773zm8.2715 0v0.8028c0.0044 0.8897 0.20617 1.5633 0.60547 2.0195 0.40374 0.4517 0.99027 0.6777 1.7578 0.6777 0.92726 0 1.6302-0.2877 2.1094-0.8613l0.02734 0.7266h1.1699v-3.3653h-1.2305v1.3653c-0.31057 0.7136-0.93638 1.0703-1.877 1.0703-0.88733 0-1.3301-0.5549-1.3301-1.6661v-0.7695h-1.2324zm7.9727 0v1.5488c0 0.6234 0.14041 1.1047 0.41992 1.4434 0.27951 0.3388 0.694 0.5078 1.2441 0.5078 0.30613 0 0.62144-0.044 0.94531-0.1347v-1.0176c-0.24845 0.054-0.44396 0.082-0.58594 0.082-0.28838 0-0.49154-0.072-0.61133-0.2168-0.11979-0.149-0.17969-0.3705-0.17969-0.6641v-1.5488zm4.4453 0v1.5488c0 0.6234 0.14041 1.1047 0.41992 1.4434 0.27951 0.3388 0.694 0.5078 1.2441 0.5078 0.30613 0 0.62144-0.044 0.94531-0.1347v-1.0176c-0.24845 0.054-0.44396 0.082-0.58594 0.082-0.28838 0-0.49154-0.072-0.61133-0.2168-0.11979-0.149-0.17969-0.3705-0.17969-0.6641v-1.5488zm3.5684 0c0.0477 1.0044 0.3336 1.8317 0.88477 2.4629 0.60782 0.6911 1.3989 1.0371 2.375 1.0371 0.64775 0 1.2218-0.1584 1.7188-0.4746 0.50134-0.3162 0.88419-0.7557 1.1504-1.3203 0.24226-0.5094 0.37108-1.0798 0.39648-1.7051h-1.2422c-0.04564 0.7193-0.21638 1.3038-0.53125 1.7324-0.36824 0.4969-0.86662 0.7442-1.4922 0.7442-0.62113 0-1.1176-0.246-1.4902-0.7383-0.33341-0.4457-0.50752-1.0297-0.53906-1.7383zm8.0781 0v3.3653h1.2324v-3.3653zm4.4336 0v3.3653h1.2305v-3.3653z" fill="#263238" fill-opacity=".87"/>
  <path d="m95.6 485.86c-0.88641 0-1.6 0.7136-1.6 1.6v12.8c0 0.8864 0.71359 1.6 1.6 1.6h12.8c0.88641 0 1.6-0.7136 1.6-1.6v-12.8c0-0.8864-0.71359-1.6-1.6-1.6z" color="#000000" color-rendering="auto" fill="#f0544c" fill-rule="evenodd" image-rendering="auto" shape-rendering="auto" solid-color="#000000" style="isolation:auto;mix-blend-mode:normal"/>
  <path d="m100.24 498.56-4.4444-4.4445 1.2533-1.2533 3.1911 3.1822 6.7467-6.7466 1.2533 1.2622z" fill="#ffffff"/>
  <circle cx="123" cy="493.86" r="7.2001" fill="none" stroke="#f0544c" stroke-width="1.5999"/>
  <circle cx="123" cy="493.86" r="3.2" fill="#f0544c"/>
  <path d="m19 494.36v-11.5c0-1.108 0.892-2 2-2h66c1.108 0 2 0.892 2 2v11.5z" fill="#ffffff"/>
  <path d="m35 487.86v6.5h1.2773v-1.25h2.1309c1.0596 0 1.669 0.4216 1.8438 1.25h1.293c-0.06608-0.3608-0.19856-0.6861-0.4082-0.9707-0.30169-0.4201-0.71476-0.7045-1.2383-0.8535 0.44367-0.1942 0.79345-0.468 1.0508-0.8203 0.25733-0.3569 0.38672-0.7659 0.38672-1.2266-1e-6 -0.8672-0.26643-1.5222-0.79883-1.9648-0.52796-0.4427-1.3177-0.6641-2.3691-0.6641zm16.244 0.7598v1.7734h-1.3105v0.9688h1.3105v2.998h1.2324v-2.998h1.3438v-0.9688h-1.3438v-1.7734zm4.4453 0v1.7734h-1.3105v0.9688h1.3105v2.998h1.2324v-2.998h1.3438v-0.9688h-1.3438v-1.7734zm-19.412 0.3105h1.8906c0.63444 0 1.1074 0.1246 1.418 0.3731 0.31057 0.2439 0.46484 0.6357 0.46484 1.1777 0 0.4878-0.16867 0.8756-0.50586 1.1602-0.33275 0.2845-0.77887 0.4257-1.3379 0.4257h-1.9297zm26.229 1.3281c-0.63444 0-1.2004 0.1552-1.6973 0.4668-0.49247 0.3117-0.87869 0.7545-1.1582 1.3282-0.27507 0.5736-0.41211 1.2193-0.41211 1.9375v0.088c0 0.098 0.01501 0.1861 0.01953 0.2812h1.2305c-0.0033-0.074-0.01367-0.1418-0.01367-0.2187 0-0.9169 0.18787-1.623 0.56055-2.1153s0.86288-0.7383 1.4707-0.7383c0.62113 0 1.1176 0.2506 1.4902 0.752 0.37712 0.4968 0.56445 1.1472 0.56445 1.9512 0 0.1302-0.01179 0.2472-0.01953 0.3691h1.2422c3e-3 -0.073 0.0098-0.1439 0.0098-0.2187v-0.088c0-1.1473-0.30429-2.0668-0.91211-2.7579-0.60339-0.691-1.3945-1.0371-2.375-1.0371zm8.1914 0c-0.88733 0-1.6061 0.3521-2.1562 1.0567l-0.03906-0.9219h-1.166v3.9668h1.2324v-1.8594c0.16859-0.3523 0.40339-0.6367 0.70508-0.8535s0.65148-0.3242 1.0508-0.3242c0.49247 0 0.85523 0.126 1.0859 0.3789 0.23514 0.2529 0.35494 0.6434 0.35938 1.1719v1.4863h1.2305v-1.4805c-0.01331-1.7479-0.78096-2.6211-2.3027-2.6211zm-27.426 0.1348v3.9668h1.2324v-3.9668zm4.4395 0v3.9668h1.2305v-3.9668zm11.547 3.9688c0.01188 0.2483 0.0374 0.4873 0.08008 0.7128-0.04143-0.2263-0.0682-0.4645-0.08008-0.7128zm-17.713 0.01c0.02966 0.1638 0.05078 0.3322 0.05078 0.5117 0-0.1794-0.02128-0.3479-0.05078-0.5117zm24.236 0c-0.01303 0.3041-0.05004 0.5957-0.11328 0.8731 0.06462-0.277 0.10023-0.5685 0.11328-0.8731zm-6.4375 0.7285c0.04288 0.2197 0.09565 0.4311 0.16797 0.6289-0.07066-0.1989-0.12634-0.4084-0.16797-0.6289zm6.3145 0.1797c-0.06529 0.2754-0.15385 0.5378-0.27148 0.7852 0.11749-0.2471 0.205-0.5109 0.27148-0.7852zm-1.2734 0.02c-0.01885 0.062-0.04248 0.1206-0.06445 0.1796 0.02148-0.059 0.04611-0.1167 0.06445-0.1796zm-3.7422 0.017c0.0089 0.029 0.02159 0.055 0.03125 0.084-0.0099-0.028-0.02215-0.055-0.03125-0.084zm3.5879 0.3946c-0.06519 0.1362-0.13605 0.2656-0.2207 0.3808 0.08472-0.1153 0.15648-0.2434 0.2207-0.3808zm-3.4277 0.017c0.06474 0.132 0.13928 0.2551 0.22461 0.3692-0.08532-0.1141-0.15906-0.2379-0.22461-0.3692zm-1.2852 0.014c0.07255 0.196 0.15426 0.3841 0.25586 0.5586-0.10013-0.175-0.18507-0.3618-0.25586-0.5586zm-19.727 0.4512c-0.17081 0.1558-0.37339 0.2717-0.60742 0.3496 0.23406-0.078 0.43661-0.1938 0.60742-0.3496zm20.352 0.6289c0.24817 0.2821 0.53614 0.4912 0.8457 0.6582-0.3099-0.1671-0.5972-0.3757-0.8457-0.6582zm-13.285 0.8223c-0.35154 0.1436-0.75902 0.2148-1.2227 0.2148 0.46363 0 0.87105-0.071 1.2227-0.2148z" fill="#263238" fill-opacity=".87"/>
 </g>
 <g id="thumbnail-dark-ruby" transform="matrix(.26458 0 0 .26458 5.0271 -123.39)">
  <rect x="15" y="477.36" width="120" height="35" fill="#444444" stroke-width="1.4349"/>
  <rect x="19" y="481.86" width="70" height="27" rx="2" ry="2" fill="#000000" filter="url(#filter4889-3)" opacity=".32"/>
  <path d="m19 494.36v11.5c0 1.108 0.892 2 2 2h66c1.108 0 2-0.892 2-2v-11.5z" fill="#444444"/>
  <path d="m35 494.36v3.3653h3.3613c1.0293 0 1.8252-0.2539 2.3887-0.7598s0.8457-1.2007 0.8457-2.086c0-0.1822-0.02037-0.3534-0.05078-0.5195h-1.293c0.03451 0.1636 0.05859 0.3373 0.05859 0.5332 0 0.5511-0.17347 0.9846-0.51953 1.3008-0.34162 0.3117-0.80978 0.4668-1.4043 0.4668h-2.1094v-2.3008h-1.2773zm8.2715 0v0.8028c0.0044 0.8897 0.20617 1.5633 0.60547 2.0195 0.40374 0.4517 0.99027 0.6777 1.7578 0.6777 0.92726 0 1.6302-0.2877 2.1094-0.8613l0.02734 0.7266h1.1699v-3.3653h-1.2305v1.3653c-0.31057 0.7136-0.93638 1.0703-1.877 1.0703-0.88733 0-1.3301-0.5549-1.3301-1.6661v-0.7695h-1.2324zm7.9727 0v1.5488c0 0.6234 0.14041 1.1047 0.41992 1.4434 0.27951 0.3388 0.694 0.5078 1.2441 0.5078 0.30613 0 0.62144-0.044 0.94531-0.1347v-1.0176c-0.24845 0.054-0.44396 0.082-0.58594 0.082-0.28838 0-0.49154-0.072-0.61133-0.2168-0.11979-0.149-0.17969-0.3705-0.17969-0.6641v-1.5488zm4.4453 0v1.5488c0 0.6234 0.14041 1.1047 0.41992 1.4434 0.27951 0.3388 0.694 0.5078 1.2441 0.5078 0.30613 0 0.62144-0.044 0.94531-0.1347v-1.0176c-0.24845 0.054-0.44396 0.082-0.58594 0.082-0.28838 0-0.49154-0.072-0.61133-0.2168-0.11979-0.149-0.17969-0.3705-0.17969-0.6641v-1.5488zm3.5684 0c0.0477 1.0044 0.3336 1.8317 0.88477 2.4629 0.60782 0.6911 1.3989 1.0371 2.375 1.0371 0.64775 0 1.2218-0.1584 1.7188-0.4746 0.50134-0.3162 0.88419-0.7557 1.1504-1.3203 0.24226-0.5094 0.37108-1.0798 0.39648-1.7051h-1.2422c-0.04564 0.7193-0.21638 1.3038-0.53125 1.7324-0.36824 0.4969-0.86662 0.7442-1.4922 0.7442-0.62113 0-1.1176-0.246-1.4902-0.7383-0.33341-0.4457-0.50752-1.0297-0.53906-1.7383zm8.0781 0v3.3653h1.2324v-3.3653zm4.4336 0v3.3653h1.2305v-3.3653z" fill="#e2e2e2"/>
  <path d="m95.6 485.86c-0.88641 0-1.6 0.7136-1.6 1.6v12.8c0 0.8864 0.71359 1.6 1.6 1.6h12.8c0.88641 0 1.6-0.7136 1.6-1.6v-12.8c0-0.8864-0.71359-1.6-1.6-1.6z" color="#000000" color-rendering="auto" fill="#f0544c" fill-rule="evenodd" image-rendering="auto" shape-rendering="auto" solid-color="#000000" style="isolation:auto;mix-blend-mode:normal"/>
  <path d="m100.24 498.56-4.4444-4.4445 1.2533-1.2533 3.1911 3.1822 6.7467-6.7466 1.2533 1.2622z" fill="#ffffff"/>
  <circle cx="123" cy="493.86" r="7.2001" fill="none" stroke="#f0544c" stroke-width="1.5999"/>
  <circle cx="123" cy="493.86" r="3.2" fill="#f0544c"/>
  <path d="m19 494.36v-11.5c0-1.108 0.892-2 2-2h66c1.108 0 2 0.892 2 2v11.5z" fill="#444444"/>
  <path d="m35 487.86v6.5h1.2773v-1.25h2.1309c1.0596 0 1.669 0.4216 1.8438 1.25h1.293c-0.06608-0.3608-0.19856-0.6861-0.4082-0.9707-0.30169-0.4201-0.71476-0.7045-1.2383-0.8535 0.44367-0.1942 0.79345-0.468 1.0508-0.8203 0.25733-0.3569 0.38672-0.7659 0.38672-1.2266-1e-6 -0.8672-0.26643-1.5222-0.79883-1.9648-0.52796-0.4427-1.3177-0.6641-2.3691-0.6641zm16.244 0.7598v1.7734h-1.3105v0.9688h1.3105v2.998h1.2324v-2.998h1.3438v-0.9688h-1.3438v-1.7734zm4.4453 0v1.7734h-1.3105v0.9688h1.3105v2.998h1.2324v-2.998h1.3438v-0.9688h-1.3438v-1.7734zm-19.412 0.3105h1.8906c0.63444 0 1.1074 0.1246 1.418 0.3731 0.31057 0.2439 0.46484 0.6357 0.46484 1.1777 0 0.4878-0.16867 0.8756-0.50586 1.1602-0.33275 0.2845-0.77887 0.4257-1.3379 0.4257h-1.9297zm26.229 1.3281c-0.63444 0-1.2004 0.1552-1.6973 0.4668-0.49247 0.3117-0.87869 0.7545-1.1582 1.3282-0.27507 0.5736-0.41211 1.2193-0.41211 1.9375v0.088c0 0.098 0.01501 0.1861 0.01953 0.2812h1.2305c-0.0033-0.074-0.01367-0.1418-0.01367-0.2187 0-0.9169 0.18787-1.623 0.56055-2.1153s0.86288-0.7383 1.4707-0.7383c0.62113 0 1.1176 0.2506 1.4902 0.752 0.37712 0.4968 0.56445 1.1472 0.56445 1.9512 0 0.1302-0.01179 0.2472-0.01953 0.3691h1.2422c3e-3 -0.073 0.0098-0.1439 0.0098-0.2187v-0.088c0-1.1473-0.30429-2.0668-0.91211-2.7579-0.60339-0.691-1.3945-1.0371-2.375-1.0371zm8.1914 0c-0.88733 0-1.6061 0.3521-2.1562 1.0567l-0.03906-0.9219h-1.166v3.9668h1.2324v-1.8594c0.16859-0.3523 0.40339-0.6367 0.70508-0.8535s0.65148-0.3242 1.0508-0.3242c0.49247 0 0.85523 0.126 1.0859 0.3789 0.23514 0.2529 0.35494 0.6434 0.35938 1.1719v1.4863h1.2305v-1.4805c-0.01331-1.7479-0.78096-2.6211-2.3027-2.6211zm-27.426 0.1348v3.9668h1.2324v-3.9668zm4.4395 0v3.9668h1.2305v-3.9668zm11.547 3.9688c0.01188 0.2483 0.0374 0.4873 0.08008 0.7128-0.04143-0.2263-0.0682-0.4645-0.08008-0.7128zm-17.713 0.01c0.02966 0.1638 0.05078 0.3322 0.05078 0.5117 0-0.1794-0.02128-0.3479-0.05078-0.5117zm24.236 0c-0.01303 0.3041-0.05004 0.5957-0.11328 0.8731 0.06462-0.277 0.10023-0.5685 0.11328-0.8731zm-6.4375 0.7285c0.04288 0.2197 0.09565 0.4311 0.16797 0.6289-0.07066-0.1989-0.12634-0.4084-0.16797-0.6289zm6.3145 0.1797c-0.06529 0.2754-0.15385 0.5378-0.27148 0.7852 0.11749-0.2471 0.205-0.5109 0.27148-0.7852zm-1.2734 0.02c-0.01885 0.062-0.04248 0.1206-0.06445 0.1796 0.02148-0.059 0.04611-0.1167 0.06445-0.1796zm-3.7422 0.017c0.0089 0.029 0.02159 0.055 0.03125 0.084-0.0099-0.028-0.02215-0.055-0.03125-0.084zm3.5879 0.3946c-0.06519 0.1362-0.13605 0.2656-0.2207 0.3808 0.08472-0.1153 0.15648-0.2434 0.2207-0.3808zm-3.4277 0.017c0.06474 0.132 0.13928 0.2551 0.22461 0.3692-0.08532-0.1141-0.15906-0.2379-0.22461-0.3692zm-1.2852 0.014c0.07255 0.196 0.15426 0.3841 0.25586 0.5586-0.10013-0.175-0.18507-0.3618-0.25586-0.5586zm-19.727 0.4512c-0.17081 0.1558-0.37339 0.2717-0.60742 0.3496 0.23406-0.078 0.43661-0.1938 0.60742-0.3496zm20.352 0.6289c0.24817 0.2821 0.53614 0.4912 0.8457 0.6582-0.3099-0.1671-0.5972-0.3757-0.8457-0.6582zm-13.285 0.8223c-0.35154 0.1436-0.75902 0.2148-1.2227 0.2148 0.46363 0 0.87105-0.071 1.2227-0.2148z" fill="#f9f9f9" fill-opacity=".87"/>
 </g>
 <g id="thumbnail-light-doder" transform="matrix(.26458 0 0 .26458 40.574 -111.48)">
  <rect x="15" y="477.36" width="120" height="35" fill="#fafbfc" stroke-width="1.4349"/>
  <rect x="19" y="481.86" width="70" height="27" rx="2" ry="2" fill="#000000" filter="url(#filter4889)" opacity=".32"/>
  <path d="m19 494.36v11.5c0 1.108 0.892 2 2 2h66c1.108 0 2-0.892 2-2v-11.5z" fill="#ffffff"/>
  <path d="m35 494.36v3.3653h3.3613c1.0293 0 1.8252-0.2539 2.3887-0.7598s0.8457-1.2007 0.8457-2.086c0-0.1822-0.02037-0.3534-0.05078-0.5195h-1.293c0.03451 0.1636 0.05859 0.3373 0.05859 0.5332 0 0.5511-0.17347 0.9846-0.51953 1.3008-0.34162 0.3117-0.80978 0.4668-1.4043 0.4668h-2.1094v-2.3008h-1.2773zm8.2715 0v0.8028c0.0044 0.8897 0.20617 1.5633 0.60547 2.0195 0.40374 0.4517 0.99027 0.6777 1.7578 0.6777 0.92726 0 1.6302-0.2877 2.1094-0.8613l0.02734 0.7266h1.1699v-3.3653h-1.2305v1.3653c-0.31057 0.7136-0.93638 1.0703-1.877 1.0703-0.88733 0-1.3301-0.5549-1.3301-1.6661v-0.7695h-1.2324zm7.9727 0v1.5488c0 0.6234 0.14041 1.1047 0.41992 1.4434 0.27951 0.3388 0.694 0.5078 1.2441 0.5078 0.30613 0 0.62144-0.044 0.94531-0.1347v-1.0176c-0.24845 0.054-0.44396 0.082-0.58594 0.082-0.28838 0-0.49154-0.072-0.61133-0.2168-0.11979-0.149-0.17969-0.3705-0.17969-0.6641v-1.5488zm4.4453 0v1.5488c0 0.6234 0.14041 1.1047 0.41992 1.4434 0.27951 0.3388 0.694 0.5078 1.2441 0.5078 0.30613 0 0.62144-0.044 0.94531-0.1347v-1.0176c-0.24845 0.054-0.44396 0.082-0.58594 0.082-0.28838 0-0.49154-0.072-0.61133-0.2168-0.11979-0.149-0.17969-0.3705-0.17969-0.6641v-1.5488zm3.5684 0c0.0477 1.0044 0.3336 1.8317 0.88477 2.4629 0.60782 0.6911 1.3989 1.0371 2.375 1.0371 0.64775 0 1.2218-0.1584 1.7188-0.4746 0.50134-0.3162 0.88419-0.7557 1.1504-1.3203 0.24226-0.5094 0.37108-1.0798 0.39648-1.7051h-1.2422c-0.04564 0.7193-0.21638 1.3038-0.53125 1.7324-0.36824 0.4969-0.86662 0.7442-1.4922 0.7442-0.62113 0-1.1176-0.246-1.4902-0.7383-0.33341-0.4457-0.50752-1.0297-0.53906-1.7383zm8.0781 0v3.3653h1.2324v-3.3653zm4.4336 0v3.3653h1.2305v-3.3653z" fill="#263238" fill-opacity=".87"/>
  <path d="m95.6 485.86c-0.88641 0-1.6 0.7136-1.6 1.6v12.8c0 0.8864 0.71359 1.6 1.6 1.6h12.8c0.88641 0 1.6-0.7136 1.6-1.6v-12.8c0-0.8864-0.71359-1.6-1.6-1.6z" color="#000000" color-rendering="auto" fill="#4285f4" fill-rule="evenodd" image-rendering="auto" shape-rendering="auto" solid-color="#000000" style="isolation:auto;mix-blend-mode:normal"/>
  <path d="m100.24 498.56-4.4444-4.4445 1.2533-1.2533 3.1911 3.1822 6.7467-6.7466 1.2533 1.2622z" fill="#ffffff"/>
  <circle cx="123" cy="493.86" r="7.2001" fill="none" stroke="#4285f4" stroke-width="1.5999"/>
  <circle cx="123" cy="493.86" r="3.2" fill="#4285f4"/>
  <path d="m19 494.36v-11.5c0-1.108 0.892-2 2-2h66c1.108 0 2 0.892 2 2v11.5z" fill="#ffffff"/>
  <path d="m35 487.86v6.5h1.2773v-1.25h2.1309c1.0596 0 1.669 0.4216 1.8438 1.25h1.293c-0.06608-0.3608-0.19856-0.6861-0.4082-0.9707-0.30169-0.4201-0.71476-0.7045-1.2383-0.8535 0.44367-0.1942 0.79345-0.468 1.0508-0.8203 0.25733-0.3569 0.38672-0.7659 0.38672-1.2266-1e-6 -0.8672-0.26643-1.5222-0.79883-1.9648-0.52796-0.4427-1.3177-0.6641-2.3691-0.6641zm16.244 0.7598v1.7734h-1.3105v0.9688h1.3105v2.998h1.2324v-2.998h1.3438v-0.9688h-1.3438v-1.7734zm4.4453 0v1.7734h-1.3105v0.9688h1.3105v2.998h1.2324v-2.998h1.3438v-0.9688h-1.3438v-1.7734zm-19.412 0.3105h1.8906c0.63444 0 1.1074 0.1246 1.418 0.3731 0.31057 0.2439 0.46484 0.6357 0.46484 1.1777 0 0.4878-0.16867 0.8756-0.50586 1.1602-0.33275 0.2845-0.77887 0.4257-1.3379 0.4257h-1.9297zm26.229 1.3281c-0.63444 0-1.2004 0.1552-1.6973 0.4668-0.49247 0.3117-0.87869 0.7545-1.1582 1.3282-0.27507 0.5736-0.41211 1.2193-0.41211 1.9375v0.088c0 0.098 0.01501 0.1861 0.01953 0.2812h1.2305c-0.0033-0.074-0.01367-0.1418-0.01367-0.2187 0-0.9169 0.18787-1.623 0.56055-2.1153s0.86288-0.7383 1.4707-0.7383c0.62113 0 1.1176 0.2506 1.4902 0.752 0.37712 0.4968 0.56445 1.1472 0.56445 1.9512 0 0.1302-0.01179 0.2472-0.01953 0.3691h1.2422c3e-3 -0.073 0.0098-0.1439 0.0098-0.2187v-0.088c0-1.1473-0.30429-2.0668-0.91211-2.7579-0.60339-0.691-1.3945-1.0371-2.375-1.0371zm8.1914 0c-0.88733 0-1.6061 0.3521-2.1562 1.0567l-0.03906-0.9219h-1.166v3.9668h1.2324v-1.8594c0.16859-0.3523 0.40339-0.6367 0.70508-0.8535s0.65148-0.3242 1.0508-0.3242c0.49247 0 0.85523 0.126 1.0859 0.3789 0.23514 0.2529 0.35494 0.6434 0.35938 1.1719v1.4863h1.2305v-1.4805c-0.01331-1.7479-0.78096-2.6211-2.3027-2.6211zm-27.426 0.1348v3.9668h1.2324v-3.9668zm4.4395 0v3.9668h1.2305v-3.9668zm11.547 3.9688c0.01188 0.2483 0.0374 0.4873 0.08008 0.7128-0.04143-0.2263-0.0682-0.4645-0.08008-0.7128zm-17.713 0.01c0.02966 0.1638 0.05078 0.3322 0.05078 0.5117 0-0.1794-0.02128-0.3479-0.05078-0.5117zm24.236 0c-0.01303 0.3041-0.05004 0.5957-0.11328 0.8731 0.06462-0.277 0.10023-0.5685 0.11328-0.8731zm-6.4375 0.7285c0.04288 0.2197 0.09565 0.4311 0.16797 0.6289-0.07066-0.1989-0.12634-0.4084-0.16797-0.6289zm6.3145 0.1797c-0.06529 0.2754-0.15385 0.5378-0.27148 0.7852 0.11749-0.2471 0.205-0.5109 0.27148-0.7852zm-1.2734 0.02c-0.01885 0.062-0.04248 0.1206-0.06445 0.1796 0.02148-0.059 0.04611-0.1167 0.06445-0.1796zm-3.7422 0.017c0.0089 0.029 0.02159 0.055 0.03125 0.084-0.0099-0.028-0.02215-0.055-0.03125-0.084zm3.5879 0.3946c-0.06519 0.1362-0.13605 0.2656-0.2207 0.3808 0.08472-0.1153 0.15648-0.2434 0.2207-0.3808zm-3.4277 0.017c0.06474 0.132 0.13928 0.2551 0.22461 0.3692-0.08532-0.1141-0.15906-0.2379-0.22461-0.3692zm-1.2852 0.014c0.07255 0.196 0.15426 0.3841 0.25586 0.5586-0.10013-0.175-0.18507-0.3618-0.25586-0.5586zm-19.727 0.4512c-0.17081 0.1558-0.37339 0.2717-0.60742 0.3496 0.23406-0.078 0.43661-0.1938 0.60742-0.3496zm20.352 0.6289c0.24817 0.2821 0.53614 0.4912 0.8457 0.6582-0.3099-0.1671-0.5972-0.3757-0.8457-0.6582zm-13.285 0.8223c-0.35154 0.1436-0.75902 0.2148-1.2227 0.2148 0.46363 0 0.87105-0.071 1.2227-0.2148z" fill="#263238" fill-opacity=".87"/>
 </g>
 <g id="thumbnail-dark-doder" transform="matrix(.26458 0 0 .26458 40.574 -123.39)">
  <rect x="15" y="477.36" width="120" height="35" fill="#444851" stroke-width="1.4349"/>
  <rect x="19" y="481.86" width="70" height="27" rx="2" ry="2" fill="#000000" filter="url(#filter4889-3)" opacity=".32"/>
  <path d="m19 494.36v11.5c0 1.108 0.892 2 2 2h66c1.108 0 2-0.892 2-2v-11.5z" fill="#444851"/>
  <path d="m35 494.36v3.3653h3.3613c1.0293 0 1.8252-0.2539 2.3887-0.7598s0.8457-1.2007 0.8457-2.086c0-0.1822-0.02037-0.3534-0.05078-0.5195h-1.293c0.03451 0.1636 0.05859 0.3373 0.05859 0.5332 0 0.5511-0.17347 0.9846-0.51953 1.3008-0.34162 0.3117-0.80978 0.4668-1.4043 0.4668h-2.1094v-2.3008h-1.2773zm8.2715 0v0.8028c0.0044 0.8897 0.20617 1.5633 0.60547 2.0195 0.40374 0.4517 0.99027 0.6777 1.7578 0.6777 0.92726 0 1.6302-0.2877 2.1094-0.8613l0.02734 0.7266h1.1699v-3.3653h-1.2305v1.3653c-0.31057 0.7136-0.93638 1.0703-1.877 1.0703-0.88733 0-1.3301-0.5549-1.3301-1.6661v-0.7695h-1.2324zm7.9727 0v1.5488c0 0.6234 0.14041 1.1047 0.41992 1.4434 0.27951 0.3388 0.694 0.5078 1.2441 0.5078 0.30613 0 0.62144-0.044 0.94531-0.1347v-1.0176c-0.24845 0.054-0.44396 0.082-0.58594 0.082-0.28838 0-0.49154-0.072-0.61133-0.2168-0.11979-0.149-0.17969-0.3705-0.17969-0.6641v-1.5488zm4.4453 0v1.5488c0 0.6234 0.14041 1.1047 0.41992 1.4434 0.27951 0.3388 0.694 0.5078 1.2441 0.5078 0.30613 0 0.62144-0.044 0.94531-0.1347v-1.0176c-0.24845 0.054-0.44396 0.082-0.58594 0.082-0.28838 0-0.49154-0.072-0.61133-0.2168-0.11979-0.149-0.17969-0.3705-0.17969-0.6641v-1.5488zm3.5684 0c0.0477 1.0044 0.3336 1.8317 0.88477 2.4629 0.60782 0.6911 1.3989 1.0371 2.375 1.0371 0.64775 0 1.2218-0.1584 1.7188-0.4746 0.50134-0.3162 0.88419-0.7557 1.1504-1.3203 0.24226-0.5094 0.37108-1.0798 0.39648-1.7051h-1.2422c-0.04564 0.7193-0.21638 1.3038-0.53125 1.7324-0.36824 0.4969-0.86662 0.7442-1.4922 0.7442-0.62113 0-1.1176-0.246-1.4902-0.7383-0.33341-0.4457-0.50752-1.0297-0.53906-1.7383zm8.0781 0v3.3653h1.2324v-3.3653zm4.4336 0v3.3653h1.2305v-3.3653z" fill="#e2e2e2"/>
  <path d="m95.6 485.86c-0.88641 0-1.6 0.7136-1.6 1.6v12.8c0 0.8864 0.71359 1.6 1.6 1.6h12.8c0.88641 0 1.6-0.7136 1.6-1.6v-12.8c0-0.8864-0.71359-1.6-1.6-1.6z" color="#000000" color-rendering="auto" fill="#4285f4" fill-rule="evenodd" image-rendering="auto" shape-rendering="auto" solid-color="#000000" style="isolation:auto;mix-blend-mode:normal"/>
  <path d="m100.24 498.56-4.4444-4.4445 1.2533-1.2533 3.1911 3.1822 6.7467-6.7466 1.2533 1.2622z" fill="#ffffff"/>
  <circle cx="123" cy="493.86" r="7.2001" fill="none" stroke="#4285f4" stroke-width="1.5999"/>
  <circle cx="123" cy="493.86" r="3.2" fill="#4285f4"/>
  <path d="m19 494.36v-11.5c0-1.108 0.892-2 2-2h66c1.108 0 2 0.892 2 2v11.5z" fill="#444851"/>
  <path d="m35 487.86v6.5h1.2773v-1.25h2.1309c1.0596 0 1.669 0.4216 1.8438 1.25h1.293c-0.06608-0.3608-0.19856-0.6861-0.4082-0.9707-0.30169-0.4201-0.71476-0.7045-1.2383-0.8535 0.44367-0.1942 0.79345-0.468 1.0508-0.8203 0.25733-0.3569 0.38672-0.7659 0.38672-1.2266-1e-6 -0.8672-0.26643-1.5222-0.79883-1.9648-0.52796-0.4427-1.3177-0.6641-2.3691-0.6641zm16.244 0.7598v1.7734h-1.3105v0.9688h1.3105v2.998h1.2324v-2.998h1.3438v-0.9688h-1.3438v-1.7734zm4.4453 0v1.7734h-1.3105v0.9688h1.3105v2.998h1.2324v-2.998h1.3438v-0.9688h-1.3438v-1.7734zm-19.412 0.3105h1.8906c0.63444 0 1.1074 0.1246 1.418 0.3731 0.31057 0.2439 0.46484 0.6357 0.46484 1.1777 0 0.4878-0.16867 0.8756-0.50586 1.1602-0.33275 0.2845-0.77887 0.4257-1.3379 0.4257h-1.9297zm26.229 1.3281c-0.63444 0-1.2004 0.1552-1.6973 0.4668-0.49247 0.3117-0.87869 0.7545-1.1582 1.3282-0.27507 0.5736-0.41211 1.2193-0.41211 1.9375v0.088c0 0.098 0.01501 0.1861 0.01953 0.2812h1.2305c-0.0033-0.074-0.01367-0.1418-0.01367-0.2187 0-0.9169 0.18787-1.623 0.56055-2.1153s0.86288-0.7383 1.4707-0.7383c0.62113 0 1.1176 0.2506 1.4902 0.752 0.37712 0.4968 0.56445 1.1472 0.56445 1.9512 0 0.1302-0.01179 0.2472-0.01953 0.3691h1.2422c3e-3 -0.073 0.0098-0.1439 0.0098-0.2187v-0.088c0-1.1473-0.30429-2.0668-0.91211-2.7579-0.60339-0.691-1.3945-1.0371-2.375-1.0371zm8.1914 0c-0.88733 0-1.6061 0.3521-2.1562 1.0567l-0.03906-0.9219h-1.166v3.9668h1.2324v-1.8594c0.16859-0.3523 0.40339-0.6367 0.70508-0.8535s0.65148-0.3242 1.0508-0.3242c0.49247 0 0.85523 0.126 1.0859 0.3789 0.23514 0.2529 0.35494 0.6434 0.35938 1.1719v1.4863h1.2305v-1.4805c-0.01331-1.7479-0.78096-2.6211-2.3027-2.6211zm-27.426 0.1348v3.9668h1.2324v-3.9668zm4.4395 0v3.9668h1.2305v-3.9668zm11.547 3.9688c0.01188 0.2483 0.0374 0.4873 0.08008 0.7128-0.04143-0.2263-0.0682-0.4645-0.08008-0.7128zm-17.713 0.01c0.02966 0.1638 0.05078 0.3322 0.05078 0.5117 0-0.1794-0.02128-0.3479-0.05078-0.5117zm24.236 0c-0.01303 0.3041-0.05004 0.5957-0.11328 0.8731 0.06462-0.277 0.10023-0.5685 0.11328-0.8731zm-6.4375 0.7285c0.04288 0.2197 0.09565 0.4311 0.16797 0.6289-0.07066-0.1989-0.12634-0.4084-0.16797-0.6289zm6.3145 0.1797c-0.06529 0.2754-0.15385 0.5378-0.27148 0.7852 0.11749-0.2471 0.205-0.5109 0.27148-0.7852zm-1.2734 0.02c-0.01885 0.062-0.04248 0.1206-0.06445 0.1796 0.02148-0.059 0.04611-0.1167 0.06445-0.1796zm-3.7422 0.017c0.0089 0.029 0.02159 0.055 0.03125 0.084-0.0099-0.028-0.02215-0.055-0.03125-0.084zm3.5879 0.3946c-0.06519 0.1362-0.13605 0.2656-0.2207 0.3808 0.08472-0.1153 0.15648-0.2434 0.2207-0.3808zm-3.4277 0.017c0.06474 0.132 0.13928 0.2551 0.22461 0.3692-0.08532-0.1141-0.15906-0.2379-0.22461-0.3692zm-1.2852 0.014c0.07255 0.196 0.15426 0.3841 0.25586 0.5586-0.10013-0.175-0.18507-0.3618-0.25586-0.5586zm-19.727 0.4512c-0.17081 0.1558-0.37339 0.2717-0.60742 0.3496 0.23406-0.078 0.43661-0.1938 0.60742-0.3496zm20.352 0.6289c0.24817 0.2821 0.53614 0.4912 0.8457 0.6582-0.3099-0.1671-0.5972-0.3757-0.8457-0.6582zm-13.285 0.8223c-0.35154 0.1436-0.75902 0.2148-1.2227 0.2148 0.46363 0 0.87105-0.071 1.2227-0.2148z" fill="#f9f9f9" fill-opacity=".87"/>
 </g>
 <g id="thumbnail-light-beryl" transform="matrix(.26458 0 0 .26458 76.682 -111.48)">
  <rect x="15" y="477.36" width="120" height="35" fill="#fafbfc" stroke-width="1.4349"/>
  <rect x="19" y="481.86" width="70" height="27" rx="2" ry="2" fill="#000000" filter="url(#filter4889)" opacity=".32"/>
  <path d="m19 494.36v11.5c0 1.108 0.892 2 2 2h66c1.108 0 2-0.892 2-2v-11.5z" fill="#ffffff"/>
  <path d="m35 494.36v3.3653h3.3613c1.0293 0 1.8252-0.2539 2.3887-0.7598s0.8457-1.2007 0.8457-2.086c0-0.1822-0.02037-0.3534-0.05078-0.5195h-1.293c0.03451 0.1636 0.05859 0.3373 0.05859 0.5332 0 0.5511-0.17347 0.9846-0.51953 1.3008-0.34162 0.3117-0.80978 0.4668-1.4043 0.4668h-2.1094v-2.3008h-1.2773zm8.2715 0v0.8028c0.0044 0.8897 0.20617 1.5633 0.60547 2.0195 0.40374 0.4517 0.99027 0.6777 1.7578 0.6777 0.92726 0 1.6302-0.2877 2.1094-0.8613l0.02734 0.7266h1.1699v-3.3653h-1.2305v1.3653c-0.31057 0.7136-0.93638 1.0703-1.877 1.0703-0.88733 0-1.3301-0.5549-1.3301-1.6661v-0.7695h-1.2324zm7.9727 0v1.5488c0 0.6234 0.14041 1.1047 0.41992 1.4434 0.27951 0.3388 0.694 0.5078 1.2441 0.5078 0.30613 0 0.62144-0.044 0.94531-0.1347v-1.0176c-0.24845 0.054-0.44396 0.082-0.58594 0.082-0.28838 0-0.49154-0.072-0.61133-0.2168-0.11979-0.149-0.17969-0.3705-0.17969-0.6641v-1.5488zm4.4453 0v1.5488c0 0.6234 0.14041 1.1047 0.41992 1.4434 0.27951 0.3388 0.694 0.5078 1.2441 0.5078 0.30613 0 0.62144-0.044 0.94531-0.1347v-1.0176c-0.24845 0.054-0.44396 0.082-0.58594 0.082-0.28838 0-0.49154-0.072-0.61133-0.2168-0.11979-0.149-0.17969-0.3705-0.17969-0.6641v-1.5488zm3.5684 0c0.0477 1.0044 0.3336 1.8317 0.88477 2.4629 0.60782 0.6911 1.3989 1.0371 2.375 1.0371 0.64775 0 1.2218-0.1584 1.7188-0.4746 0.50134-0.3162 0.88419-0.7557 1.1504-1.3203 0.24226-0.5094 0.37108-1.0798 0.39648-1.7051h-1.2422c-0.04564 0.7193-0.21638 1.3038-0.53125 1.7324-0.36824 0.4969-0.86662 0.7442-1.4922 0.7442-0.62113 0-1.1176-0.246-1.4902-0.7383-0.33341-0.4457-0.50752-1.0297-0.53906-1.7383zm8.0781 0v3.3653h1.2324v-3.3653zm4.4336 0v3.3653h1.2305v-3.3653z" fill="#263238" fill-opacity=".87"/>
  <path d="m95.6 485.86c-0.88641 0-1.6 0.7136-1.6 1.6v12.8c0 0.8864 0.71359 1.6 1.6 1.6h12.8c0.88641 0 1.6-0.7136 1.6-1.6v-12.8c0-0.8864-0.71359-1.6-1.6-1.6z" color="#000000" color-rendering="auto" fill="#2eb398" fill-rule="evenodd" image-rendering="auto" shape-rendering="auto" solid-color="#000000" style="isolation:auto;mix-blend-mode:normal"/>
  <path d="m100.24 498.56-4.4444-4.4445 1.2533-1.2533 3.1911 3.1822 6.7467-6.7466 1.2533 1.2622z" fill="#ffffff"/>
  <circle cx="123" cy="493.86" r="7.2001" fill="none" stroke="#2eb398" stroke-width="1.5999"/>
  <circle cx="123" cy="493.86" r="3.2" fill="#2eb398"/>
  <path d="m19 494.36v-11.5c0-1.108 0.892-2 2-2h66c1.108 0 2 0.892 2 2v11.5z" fill="#ffffff"/>
  <path d="m35 487.86v6.5h1.2773v-1.25h2.1309c1.0596 0 1.669 0.4216 1.8438 1.25h1.293c-0.06608-0.3608-0.19856-0.6861-0.4082-0.9707-0.30169-0.4201-0.71476-0.7045-1.2383-0.8535 0.44367-0.1942 0.79345-0.468 1.0508-0.8203 0.25733-0.3569 0.38672-0.7659 0.38672-1.2266-1e-6 -0.8672-0.26643-1.5222-0.79883-1.9648-0.52796-0.4427-1.3177-0.6641-2.3691-0.6641zm16.244 0.7598v1.7734h-1.3105v0.9688h1.3105v2.998h1.2324v-2.998h1.3438v-0.9688h-1.3438v-1.7734zm4.4453 0v1.7734h-1.3105v0.9688h1.3105v2.998h1.2324v-2.998h1.3438v-0.9688h-1.3438v-1.7734zm-19.412 0.3105h1.8906c0.63444 0 1.1074 0.1246 1.418 0.3731 0.31057 0.2439 0.46484 0.6357 0.46484 1.1777 0 0.4878-0.16867 0.8756-0.50586 1.1602-0.33275 0.2845-0.77887 0.4257-1.3379 0.4257h-1.9297zm26.229 1.3281c-0.63444 0-1.2004 0.1552-1.6973 0.4668-0.49247 0.3117-0.87869 0.7545-1.1582 1.3282-0.27507 0.5736-0.41211 1.2193-0.41211 1.9375v0.088c0 0.098 0.01501 0.1861 0.01953 0.2812h1.2305c-0.0033-0.074-0.01367-0.1418-0.01367-0.2187 0-0.9169 0.18787-1.623 0.56055-2.1153s0.86288-0.7383 1.4707-0.7383c0.62113 0 1.1176 0.2506 1.4902 0.752 0.37712 0.4968 0.56445 1.1472 0.56445 1.9512 0 0.1302-0.01179 0.2472-0.01953 0.3691h1.2422c3e-3 -0.073 0.0098-0.1439 0.0098-0.2187v-0.088c0-1.1473-0.30429-2.0668-0.91211-2.7579-0.60339-0.691-1.3945-1.0371-2.375-1.0371zm8.1914 0c-0.88733 0-1.6061 0.3521-2.1562 1.0567l-0.03906-0.9219h-1.166v3.9668h1.2324v-1.8594c0.16859-0.3523 0.40339-0.6367 0.70508-0.8535s0.65148-0.3242 1.0508-0.3242c0.49247 0 0.85523 0.126 1.0859 0.3789 0.23514 0.2529 0.35494 0.6434 0.35938 1.1719v1.4863h1.2305v-1.4805c-0.01331-1.7479-0.78096-2.6211-2.3027-2.6211zm-27.426 0.1348v3.9668h1.2324v-3.9668zm4.4395 0v3.9668h1.2305v-3.9668zm11.547 3.9688c0.01188 0.2483 0.0374 0.4873 0.08008 0.7128-0.04143-0.2263-0.0682-0.4645-0.08008-0.7128zm-17.713 0.01c0.02966 0.1638 0.05078 0.3322 0.05078 0.5117 0-0.1794-0.02128-0.3479-0.05078-0.5117zm24.236 0c-0.01303 0.3041-0.05004 0.5957-0.11328 0.8731 0.06462-0.277 0.10023-0.5685 0.11328-0.8731zm-6.4375 0.7285c0.04288 0.2197 0.09565 0.4311 0.16797 0.6289-0.07066-0.1989-0.12634-0.4084-0.16797-0.6289zm6.3145 0.1797c-0.06529 0.2754-0.15385 0.5378-0.27148 0.7852 0.11749-0.2471 0.205-0.5109 0.27148-0.7852zm-1.2734 0.02c-0.01885 0.062-0.04248 0.1206-0.06445 0.1796 0.02148-0.059 0.04611-0.1167 0.06445-0.1796zm-3.7422 0.017c0.0089 0.029 0.02159 0.055 0.03125 0.084-0.0099-0.028-0.02215-0.055-0.03125-0.084zm3.5879 0.3946c-0.06519 0.1362-0.13605 0.2656-0.2207 0.3808 0.08472-0.1153 0.15648-0.2434 0.2207-0.3808zm-3.4277 0.017c0.06474 0.132 0.13928 0.2551 0.22461 0.3692-0.08532-0.1141-0.15906-0.2379-0.22461-0.3692zm-1.2852 0.014c0.07255 0.196 0.15426 0.3841 0.25586 0.5586-0.10013-0.175-0.18507-0.3618-0.25586-0.5586zm-19.727 0.4512c-0.17081 0.1558-0.37339 0.2717-0.60742 0.3496 0.23406-0.078 0.43661-0.1938 0.60742-0.3496zm20.352 0.6289c0.24817 0.2821 0.53614 0.4912 0.8457 0.6582-0.3099-0.1671-0.5972-0.3757-0.8457-0.6582zm-13.285 0.8223c-0.35154 0.1436-0.75902 0.2148-1.2227 0.2148 0.46363 0 0.87105-0.071 1.2227-0.2148z" fill="#263238" fill-opacity=".87"/>
 </g>
 <g id="thumbnail-dark-beryl" transform="matrix(.26458 0 0 .26458 76.682 -123.39)">
  <rect x="15" y="477.36" width="120" height="35" fill="#444851" stroke-width="1.4349"/>
  <rect x="19" y="481.86" width="70" height="27" rx="2" ry="2" fill="#000000" filter="url(#filter4889-3)" opacity=".32"/>
  <path d="m19 494.36v11.5c0 1.108 0.892 2 2 2h66c1.108 0 2-0.892 2-2v-11.5z" fill="#444851"/>
  <path d="m35 494.36v3.3653h3.3613c1.0293 0 1.8252-0.2539 2.3887-0.7598s0.8457-1.2007 0.8457-2.086c0-0.1822-0.02037-0.3534-0.05078-0.5195h-1.293c0.03451 0.1636 0.05859 0.3373 0.05859 0.5332 0 0.5511-0.17347 0.9846-0.51953 1.3008-0.34162 0.3117-0.80978 0.4668-1.4043 0.4668h-2.1094v-2.3008h-1.2773zm8.2715 0v0.8028c0.0044 0.8897 0.20617 1.5633 0.60547 2.0195 0.40374 0.4517 0.99027 0.6777 1.7578 0.6777 0.92726 0 1.6302-0.2877 2.1094-0.8613l0.02734 0.7266h1.1699v-3.3653h-1.2305v1.3653c-0.31057 0.7136-0.93638 1.0703-1.877 1.0703-0.88733 0-1.3301-0.5549-1.3301-1.6661v-0.7695h-1.2324zm7.9727 0v1.5488c0 0.6234 0.14041 1.1047 0.41992 1.4434 0.27951 0.3388 0.694 0.5078 1.2441 0.5078 0.30613 0 0.62144-0.044 0.94531-0.1347v-1.0176c-0.24845 0.054-0.44396 0.082-0.58594 0.082-0.28838 0-0.49154-0.072-0.61133-0.2168-0.11979-0.149-0.17969-0.3705-0.17969-0.6641v-1.5488zm4.4453 0v1.5488c0 0.6234 0.14041 1.1047 0.41992 1.4434 0.27951 0.3388 0.694 0.5078 1.2441 0.5078 0.30613 0 0.62144-0.044 0.94531-0.1347v-1.0176c-0.24845 0.054-0.44396 0.082-0.58594 0.082-0.28838 0-0.49154-0.072-0.61133-0.2168-0.11979-0.149-0.17969-0.3705-0.17969-0.6641v-1.5488zm3.5684 0c0.0477 1.0044 0.3336 1.8317 0.88477 2.4629 0.60782 0.6911 1.3989 1.0371 2.375 1.0371 0.64775 0 1.2218-0.1584 1.7188-0.4746 0.50134-0.3162 0.88419-0.7557 1.1504-1.3203 0.24226-0.5094 0.37108-1.0798 0.39648-1.7051h-1.2422c-0.04564 0.7193-0.21638 1.3038-0.53125 1.7324-0.36824 0.4969-0.86662 0.7442-1.4922 0.7442-0.62113 0-1.1176-0.246-1.4902-0.7383-0.33341-0.4457-0.50752-1.0297-0.53906-1.7383zm8.0781 0v3.3653h1.2324v-3.3653zm4.4336 0v3.3653h1.2305v-3.3653z" fill="#e2e2e2"/>
  <path d="m95.6 485.86c-0.88641 0-1.6 0.7136-1.6 1.6v12.8c0 0.8864 0.71359 1.6 1.6 1.6h12.8c0.88641 0 1.6-0.7136 1.6-1.6v-12.8c0-0.8864-0.71359-1.6-1.6-1.6z" color="#000000" color-rendering="auto" fill="#2eb398" fill-rule="evenodd" image-rendering="auto" shape-rendering="auto" solid-color="#000000" style="isolation:auto;mix-blend-mode:normal"/>
  <path d="m100.24 498.56-4.4444-4.4445 1.2533-1.2533 3.1911 3.1822 6.7467-6.7466 1.2533 1.2622z" fill="#ffffff"/>
  <circle cx="123" cy="493.86" r="7.2001" fill="none" stroke="#2eb398" stroke-width="1.5999"/>
  <circle cx="123" cy="493.86" r="3.2" fill="#2eb398"/>
  <path d="m19 494.36v-11.5c0-1.108 0.892-2 2-2h66c1.108 0 2 0.892 2 2v11.5z" fill="#444851"/>
  <path d="m35 487.86v6.5h1.2773v-1.25h2.1309c1.0596 0 1.669 0.4216 1.8438 1.25h1.293c-0.06608-0.3608-0.19856-0.6861-0.4082-0.9707-0.30169-0.4201-0.71476-0.7045-1.2383-0.8535 0.44367-0.1942 0.79345-0.468 1.0508-0.8203 0.25733-0.3569 0.38672-0.7659 0.38672-1.2266-1e-6 -0.8672-0.26643-1.5222-0.79883-1.9648-0.52796-0.4427-1.3177-0.6641-2.3691-0.6641zm16.244 0.7598v1.7734h-1.3105v0.9688h1.3105v2.998h1.2324v-2.998h1.3438v-0.9688h-1.3438v-1.7734zm4.4453 0v1.7734h-1.3105v0.9688h1.3105v2.998h1.2324v-2.998h1.3438v-0.9688h-1.3438v-1.7734zm-19.412 0.3105h1.8906c0.63444 0 1.1074 0.1246 1.418 0.3731 0.31057 0.2439 0.46484 0.6357 0.46484 1.1777 0 0.4878-0.16867 0.8756-0.50586 1.1602-0.33275 0.2845-0.77887 0.4257-1.3379 0.4257h-1.9297zm26.229 1.3281c-0.63444 0-1.2004 0.1552-1.6973 0.4668-0.49247 0.3117-0.87869 0.7545-1.1582 1.3282-0.27507 0.5736-0.41211 1.2193-0.41211 1.9375v0.088c0 0.098 0.01501 0.1861 0.01953 0.2812h1.2305c-0.0033-0.074-0.01367-0.1418-0.01367-0.2187 0-0.9169 0.18787-1.623 0.56055-2.1153s0.86288-0.7383 1.4707-0.7383c0.62113 0 1.1176 0.2506 1.4902 0.752 0.37712 0.4968 0.56445 1.1472 0.56445 1.9512 0 0.1302-0.01179 0.2472-0.01953 0.3691h1.2422c3e-3 -0.073 0.0098-0.1439 0.0098-0.2187v-0.088c0-1.1473-0.30429-2.0668-0.91211-2.7579-0.60339-0.691-1.3945-1.0371-2.375-1.0371zm8.1914 0c-0.88733 0-1.6061 0.3521-2.1562 1.0567l-0.03906-0.9219h-1.166v3.9668h1.2324v-1.8594c0.16859-0.3523 0.40339-0.6367 0.70508-0.8535s0.65148-0.3242 1.0508-0.3242c0.49247 0 0.85523 0.126 1.0859 0.3789 0.23514 0.2529 0.35494 0.6434 0.35938 1.1719v1.4863h1.2305v-1.4805c-0.01331-1.7479-0.78096-2.6211-2.3027-2.6211zm-27.426 0.1348v3.9668h1.2324v-3.9668zm4.4395 0v3.9668h1.2305v-3.9668zm11.547 3.9688c0.01188 0.2483 0.0374 0.4873 0.08008 0.7128-0.04143-0.2263-0.0682-0.4645-0.08008-0.7128zm-17.713 0.01c0.02966 0.1638 0.05078 0.3322 0.05078 0.5117 0-0.1794-0.02128-0.3479-0.05078-0.5117zm24.236 0c-0.01303 0.3041-0.05004 0.5957-0.11328 0.8731 0.06462-0.277 0.10023-0.5685 0.11328-0.8731zm-6.4375 0.7285c0.04288 0.2197 0.09565 0.4311 0.16797 0.6289-0.07066-0.1989-0.12634-0.4084-0.16797-0.6289zm6.3145 0.1797c-0.06529 0.2754-0.15385 0.5378-0.27148 0.7852 0.11749-0.2471 0.205-0.5109 0.27148-0.7852zm-1.2734 0.02c-0.01885 0.062-0.04248 0.1206-0.06445 0.1796 0.02148-0.059 0.04611-0.1167 0.06445-0.1796zm-3.7422 0.017c0.0089 0.029 0.02159 0.055 0.03125 0.084-0.0099-0.028-0.02215-0.055-0.03125-0.084zm3.5879 0.3946c-0.06519 0.1362-0.13605 0.2656-0.2207 0.3808 0.08472-0.1153 0.15648-0.2434 0.2207-0.3808zm-3.4277 0.017c0.06474 0.132 0.13928 0.2551 0.22461 0.3692-0.08532-0.1141-0.15906-0.2379-0.22461-0.3692zm-1.2852 0.014c0.07255 0.196 0.15426 0.3841 0.25586 0.5586-0.10013-0.175-0.18507-0.3618-0.25586-0.5586zm-19.727 0.4512c-0.17081 0.1558-0.37339 0.2717-0.60742 0.3496 0.23406-0.078 0.43661-0.1938 0.60742-0.3496zm20.352 0.6289c0.24817 0.2821 0.53614 0.4912 0.8457 0.6582-0.3099-0.1671-0.5972-0.3757-0.8457-0.6582zm-13.285 0.8223c-0.35154 0.1436-0.75902 0.2148-1.2227 0.2148 0.46363 0 0.87105-0.071 1.2227-0.2148z" fill="#f9f9f9" fill-opacity=".87"/>
 </g>
 <g id="thumbnail-light-grey" transform="matrix(.26458 0 0 .26458 112.23 -111.48)">
  <rect x="15" y="477.36" width="120" height="35" fill="#fafbfc" stroke-width="1.4349"/>
  <rect x="19" y="481.86" width="70" height="27" rx="2" ry="2" fill="#000000" filter="url(#filter4889)" opacity=".32"/>
  <path d="m19 494.36v11.5c0 1.108 0.892 2 2 2h66c1.108 0 2-0.892 2-2v-11.5z" fill="#ffffff"/>
  <path d="m35 494.36v3.3653h3.3613c1.0293 0 1.8252-0.2539 2.3887-0.7598s0.8457-1.2007 0.8457-2.086c0-0.1822-0.02037-0.3534-0.05078-0.5195h-1.293c0.03451 0.1636 0.05859 0.3373 0.05859 0.5332 0 0.5511-0.17347 0.9846-0.51953 1.3008-0.34162 0.3117-0.80978 0.4668-1.4043 0.4668h-2.1094v-2.3008h-1.2773zm8.2715 0v0.8028c0.0044 0.8897 0.20617 1.5633 0.60547 2.0195 0.40374 0.4517 0.99027 0.6777 1.7578 0.6777 0.92726 0 1.6302-0.2877 2.1094-0.8613l0.02734 0.7266h1.1699v-3.3653h-1.2305v1.3653c-0.31057 0.7136-0.93638 1.0703-1.877 1.0703-0.88733 0-1.3301-0.5549-1.3301-1.6661v-0.7695h-1.2324zm7.9727 0v1.5488c0 0.6234 0.14041 1.1047 0.41992 1.4434 0.27951 0.3388 0.694 0.5078 1.2441 0.5078 0.30613 0 0.62144-0.044 0.94531-0.1347v-1.0176c-0.24845 0.054-0.44396 0.082-0.58594 0.082-0.28838 0-0.49154-0.072-0.61133-0.2168-0.11979-0.149-0.17969-0.3705-0.17969-0.6641v-1.5488zm4.4453 0v1.5488c0 0.6234 0.14041 1.1047 0.41992 1.4434 0.27951 0.3388 0.694 0.5078 1.2441 0.5078 0.30613 0 0.62144-0.044 0.94531-0.1347v-1.0176c-0.24845 0.054-0.44396 0.082-0.58594 0.082-0.28838 0-0.49154-0.072-0.61133-0.2168-0.11979-0.149-0.17969-0.3705-0.17969-0.6641v-1.5488zm3.5684 0c0.0477 1.0044 0.3336 1.8317 0.88477 2.4629 0.60782 0.6911 1.3989 1.0371 2.375 1.0371 0.64775 0 1.2218-0.1584 1.7188-0.4746 0.50134-0.3162 0.88419-0.7557 1.1504-1.3203 0.24226-0.5094 0.37108-1.0798 0.39648-1.7051h-1.2422c-0.04564 0.7193-0.21638 1.3038-0.53125 1.7324-0.36824 0.4969-0.86662 0.7442-1.4922 0.7442-0.62113 0-1.1176-0.246-1.4902-0.7383-0.33341-0.4457-0.50752-1.0297-0.53906-1.7383zm8.0781 0v3.3653h1.2324v-3.3653zm4.4336 0v3.3653h1.2305v-3.3653z" fill="#263238" fill-opacity=".87"/>
  <path d="m95.6 485.86c-0.88641 0-1.6 0.7136-1.6 1.6v12.8c0 0.8864 0.71359 1.6 1.6 1.6h12.8c0.88641 0 1.6-0.7136 1.6-1.6v-12.8c0-0.8864-0.71359-1.6-1.6-1.6z" color="#000000" color-rendering="auto" fill="#444444" fill-rule="evenodd" image-rendering="auto" shape-rendering="auto" solid-color="#000000" style="isolation:auto;mix-blend-mode:normal"/>
  <path d="m100.24 498.56-4.4444-4.4445 1.2533-1.2533 3.1911 3.1822 6.7467-6.7466 1.2533 1.2622z" fill="#ffffff"/>
  <circle cx="123" cy="493.86" r="7.2001" fill="none" stroke="#444444" stroke-width="1.5999"/>
  <circle cx="123" cy="493.86" r="3.2" fill="#444444"/>
  <path d="m19 494.36v-11.5c0-1.108 0.892-2 2-2h66c1.108 0 2 0.892 2 2v11.5z" fill="#ffffff"/>
  <path d="m35 487.86v6.5h1.2773v-1.25h2.1309c1.0596 0 1.669 0.4216 1.8438 1.25h1.293c-0.06608-0.3608-0.19856-0.6861-0.4082-0.9707-0.30169-0.4201-0.71476-0.7045-1.2383-0.8535 0.44367-0.1942 0.79345-0.468 1.0508-0.8203 0.25733-0.3569 0.38672-0.7659 0.38672-1.2266-1e-6 -0.8672-0.26643-1.5222-0.79883-1.9648-0.52796-0.4427-1.3177-0.6641-2.3691-0.6641zm16.244 0.7598v1.7734h-1.3105v0.9688h1.3105v2.998h1.2324v-2.998h1.3438v-0.9688h-1.3438v-1.7734zm4.4453 0v1.7734h-1.3105v0.9688h1.3105v2.998h1.2324v-2.998h1.3438v-0.9688h-1.3438v-1.7734zm-19.412 0.3105h1.8906c0.63444 0 1.1074 0.1246 1.418 0.3731 0.31057 0.2439 0.46484 0.6357 0.46484 1.1777 0 0.4878-0.16867 0.8756-0.50586 1.1602-0.33275 0.2845-0.77887 0.4257-1.3379 0.4257h-1.9297zm26.229 1.3281c-0.63444 0-1.2004 0.1552-1.6973 0.4668-0.49247 0.3117-0.87869 0.7545-1.1582 1.3282-0.27507 0.5736-0.41211 1.2193-0.41211 1.9375v0.088c0 0.098 0.01501 0.1861 0.01953 0.2812h1.2305c-0.0033-0.074-0.01367-0.1418-0.01367-0.2187 0-0.9169 0.18787-1.623 0.56055-2.1153s0.86288-0.7383 1.4707-0.7383c0.62113 0 1.1176 0.2506 1.4902 0.752 0.37712 0.4968 0.56445 1.1472 0.56445 1.9512 0 0.1302-0.01179 0.2472-0.01953 0.3691h1.2422c3e-3 -0.073 0.0098-0.1439 0.0098-0.2187v-0.088c0-1.1473-0.30429-2.0668-0.91211-2.7579-0.60339-0.691-1.3945-1.0371-2.375-1.0371zm8.1914 0c-0.88733 0-1.6061 0.3521-2.1562 1.0567l-0.03906-0.9219h-1.166v3.9668h1.2324v-1.8594c0.16859-0.3523 0.40339-0.6367 0.70508-0.8535s0.65148-0.3242 1.0508-0.3242c0.49247 0 0.85523 0.126 1.0859 0.3789 0.23514 0.2529 0.35494 0.6434 0.35938 1.1719v1.4863h1.2305v-1.4805c-0.01331-1.7479-0.78096-2.6211-2.3027-2.6211zm-27.426 0.1348v3.9668h1.2324v-3.9668zm4.4395 0v3.9668h1.2305v-3.9668zm11.547 3.9688c0.01188 0.2483 0.0374 0.4873 0.08008 0.7128-0.04143-0.2263-0.0682-0.4645-0.08008-0.7128zm-17.713 0.01c0.02966 0.1638 0.05078 0.3322 0.05078 0.5117 0-0.1794-0.02128-0.3479-0.05078-0.5117zm24.236 0c-0.01303 0.3041-0.05004 0.5957-0.11328 0.8731 0.06462-0.277 0.10023-0.5685 0.11328-0.8731zm-6.4375 0.7285c0.04288 0.2197 0.09565 0.4311 0.16797 0.6289-0.07066-0.1989-0.12634-0.4084-0.16797-0.6289zm6.3145 0.1797c-0.06529 0.2754-0.15385 0.5378-0.27148 0.7852 0.11749-0.2471 0.205-0.5109 0.27148-0.7852zm-1.2734 0.02c-0.01885 0.062-0.04248 0.1206-0.06445 0.1796 0.02148-0.059 0.04611-0.1167 0.06445-0.1796zm-3.7422 0.017c0.0089 0.029 0.02159 0.055 0.03125 0.084-0.0099-0.028-0.02215-0.055-0.03125-0.084zm3.5879 0.3946c-0.06519 0.1362-0.13605 0.2656-0.2207 0.3808 0.08472-0.1153 0.15648-0.2434 0.2207-0.3808zm-3.4277 0.017c0.06474 0.132 0.13928 0.2551 0.22461 0.3692-0.08532-0.1141-0.15906-0.2379-0.22461-0.3692zm-1.2852 0.014c0.07255 0.196 0.15426 0.3841 0.25586 0.5586-0.10013-0.175-0.18507-0.3618-0.25586-0.5586zm-19.727 0.4512c-0.17081 0.1558-0.37339 0.2717-0.60742 0.3496 0.23406-0.078 0.43661-0.1938 0.60742-0.3496zm20.352 0.6289c0.24817 0.2821 0.53614 0.4912 0.8457 0.6582-0.3099-0.1671-0.5972-0.3757-0.8457-0.6582zm-13.285 0.8223c-0.35154 0.1436-0.75902 0.2148-1.2227 0.2148 0.46363 0 0.87105-0.071 1.2227-0.2148z" fill="#263238" fill-opacity=".87"/>
 </g>
 <g id="thumbnail-dark-grey" transform="matrix(.26458 0 0 .26458 112.23 -123.39)">
  <rect x="15" y="477.36" width="120" height="35" fill="#444444" stroke-width="1.4349"/>
  <rect x="19" y="481.86" width="70" height="27" rx="2" ry="2" fill="#000000" filter="url(#filter4889-3)" opacity=".32"/>
  <path d="m19 494.36v11.5c0 1.108 0.892 2 2 2h66c1.108 0 2-0.892 2-2v-11.5z" fill="#444444"/>
  <path d="m35 494.36v3.3653h3.3613c1.0293 0 1.8252-0.2539 2.3887-0.7598s0.8457-1.2007 0.8457-2.086c0-0.1822-0.02037-0.3534-0.05078-0.5195h-1.293c0.03451 0.1636 0.05859 0.3373 0.05859 0.5332 0 0.5511-0.17347 0.9846-0.51953 1.3008-0.34162 0.3117-0.80978 0.4668-1.4043 0.4668h-2.1094v-2.3008h-1.2773zm8.2715 0v0.8028c0.0044 0.8897 0.20617 1.5633 0.60547 2.0195 0.40374 0.4517 0.99027 0.6777 1.7578 0.6777 0.92726 0 1.6302-0.2877 2.1094-0.8613l0.02734 0.7266h1.1699v-3.3653h-1.2305v1.3653c-0.31057 0.7136-0.93638 1.0703-1.877 1.0703-0.88733 0-1.3301-0.5549-1.3301-1.6661v-0.7695h-1.2324zm7.9727 0v1.5488c0 0.6234 0.14041 1.1047 0.41992 1.4434 0.27951 0.3388 0.694 0.5078 1.2441 0.5078 0.30613 0 0.62144-0.044 0.94531-0.1347v-1.0176c-0.24845 0.054-0.44396 0.082-0.58594 0.082-0.28838 0-0.49154-0.072-0.61133-0.2168-0.11979-0.149-0.17969-0.3705-0.17969-0.6641v-1.5488zm4.4453 0v1.5488c0 0.6234 0.14041 1.1047 0.41992 1.4434 0.27951 0.3388 0.694 0.5078 1.2441 0.5078 0.30613 0 0.62144-0.044 0.94531-0.1347v-1.0176c-0.24845 0.054-0.44396 0.082-0.58594 0.082-0.28838 0-0.49154-0.072-0.61133-0.2168-0.11979-0.149-0.17969-0.3705-0.17969-0.6641v-1.5488zm3.5684 0c0.0477 1.0044 0.3336 1.8317 0.88477 2.4629 0.60782 0.6911 1.3989 1.0371 2.375 1.0371 0.64775 0 1.2218-0.1584 1.7188-0.4746 0.50134-0.3162 0.88419-0.7557 1.1504-1.3203 0.24226-0.5094 0.37108-1.0798 0.39648-1.7051h-1.2422c-0.04564 0.7193-0.21638 1.3038-0.53125 1.7324-0.36824 0.4969-0.86662 0.7442-1.4922 0.7442-0.62113 0-1.1176-0.246-1.4902-0.7383-0.33341-0.4457-0.50752-1.0297-0.53906-1.7383zm8.0781 0v3.3653h1.2324v-3.3653zm4.4336 0v3.3653h1.2305v-3.3653z" fill="#e2e2e2"/>
  <path d="m95.6 485.86c-0.88641 0-1.6 0.7136-1.6 1.6v12.8c0 0.8864 0.71359 1.6 1.6 1.6h12.8c0.88641 0 1.6-0.7136 1.6-1.6v-12.8c0-0.8864-0.71359-1.6-1.6-1.6z" color="#000000" color-rendering="auto" fill="#f2f2f2" fill-rule="evenodd" image-rendering="auto" shape-rendering="auto" solid-color="#000000" style="isolation:auto;mix-blend-mode:normal"/>
  <path d="m100.24 498.56-4.4444-4.4445 1.2533-1.2533 3.1911 3.1822 6.7467-6.7466 1.2533 1.2622z" fill="#444444"/>
  <circle cx="123" cy="493.86" r="7.2001" fill="none" stroke="#f2f2f2" stroke-width="1.5999"/>
  <circle cx="123" cy="493.86" r="3.2" fill="#f2f2f2"/>
  <path d="m19 494.36v-11.5c0-1.108 0.892-2 2-2h66c1.108 0 2 0.892 2 2v11.5z" fill="#444444"/>
  <path d="m35 487.86v6.5h1.2773v-1.25h2.1309c1.0596 0 1.669 0.4216 1.8438 1.25h1.293c-0.06608-0.3608-0.19856-0.6861-0.4082-0.9707-0.30169-0.4201-0.71476-0.7045-1.2383-0.8535 0.44367-0.1942 0.79345-0.468 1.0508-0.8203 0.25733-0.3569 0.38672-0.7659 0.38672-1.2266-1e-6 -0.8672-0.26643-1.5222-0.79883-1.9648-0.52796-0.4427-1.3177-0.6641-2.3691-0.6641zm16.244 0.7598v1.7734h-1.3105v0.9688h1.3105v2.998h1.2324v-2.998h1.3438v-0.9688h-1.3438v-1.7734zm4.4453 0v1.7734h-1.3105v0.9688h1.3105v2.998h1.2324v-2.998h1.3438v-0.9688h-1.3438v-1.7734zm-19.412 0.3105h1.8906c0.63444 0 1.1074 0.1246 1.418 0.3731 0.31057 0.2439 0.46484 0.6357 0.46484 1.1777 0 0.4878-0.16867 0.8756-0.50586 1.1602-0.33275 0.2845-0.77887 0.4257-1.3379 0.4257h-1.9297zm26.229 1.3281c-0.63444 0-1.2004 0.1552-1.6973 0.4668-0.49247 0.3117-0.87869 0.7545-1.1582 1.3282-0.27507 0.5736-0.41211 1.2193-0.41211 1.9375v0.088c0 0.098 0.01501 0.1861 0.01953 0.2812h1.2305c-0.0033-0.074-0.01367-0.1418-0.01367-0.2187 0-0.9169 0.18787-1.623 0.56055-2.1153s0.86288-0.7383 1.4707-0.7383c0.62113 0 1.1176 0.2506 1.4902 0.752 0.37712 0.4968 0.56445 1.1472 0.56445 1.9512 0 0.1302-0.01179 0.2472-0.01953 0.3691h1.2422c3e-3 -0.073 0.0098-0.1439 0.0098-0.2187v-0.088c0-1.1473-0.30429-2.0668-0.91211-2.7579-0.60339-0.691-1.3945-1.0371-2.375-1.0371zm8.1914 0c-0.88733 0-1.6061 0.3521-2.1562 1.0567l-0.03906-0.9219h-1.166v3.9668h1.2324v-1.8594c0.16859-0.3523 0.40339-0.6367 0.70508-0.8535s0.65148-0.3242 1.0508-0.3242c0.49247 0 0.85523 0.126 1.0859 0.3789 0.23514 0.2529 0.35494 0.6434 0.35938 1.1719v1.4863h1.2305v-1.4805c-0.01331-1.7479-0.78096-2.6211-2.3027-2.6211zm-27.426 0.1348v3.9668h1.2324v-3.9668zm4.4395 0v3.9668h1.2305v-3.9668zm11.547 3.9688c0.01188 0.2483 0.0374 0.4873 0.08008 0.7128-0.04143-0.2263-0.0682-0.4645-0.08008-0.7128zm-17.713 0.01c0.02966 0.1638 0.05078 0.3322 0.05078 0.5117 0-0.1794-0.02128-0.3479-0.05078-0.5117zm24.236 0c-0.01303 0.3041-0.05004 0.5957-0.11328 0.8731 0.06462-0.277 0.10023-0.5685 0.11328-0.8731zm-6.4375 0.7285c0.04288 0.2197 0.09565 0.4311 0.16797 0.6289-0.07066-0.1989-0.12634-0.4084-0.16797-0.6289zm6.3145 0.1797c-0.06529 0.2754-0.15385 0.5378-0.27148 0.7852 0.11749-0.2471 0.205-0.5109 0.27148-0.7852zm-1.2734 0.02c-0.01885 0.062-0.04248 0.1206-0.06445 0.1796 0.02148-0.059 0.04611-0.1167 0.06445-0.1796zm-3.7422 0.017c0.0089 0.029 0.02159 0.055 0.03125 0.084-0.0099-0.028-0.02215-0.055-0.03125-0.084zm3.5879 0.3946c-0.06519 0.1362-0.13605 0.2656-0.2207 0.3808 0.08472-0.1153 0.15648-0.2434 0.2207-0.3808zm-3.4277 0.017c0.06474 0.132 0.13928 0.2551 0.22461 0.3692-0.08532-0.1141-0.15906-0.2379-0.22461-0.3692zm-1.2852 0.014c0.07255 0.196 0.15426 0.3841 0.25586 0.5586-0.10013-0.175-0.18507-0.3618-0.25586-0.5586zm-19.727 0.4512c-0.17081 0.1558-0.37339 0.2717-0.60742 0.3496 0.23406-0.078 0.43661-0.1938 0.60742-0.3496zm20.352 0.6289c0.24817 0.2821 0.53614 0.4912 0.8457 0.6582-0.3099-0.1671-0.5972-0.3757-0.8457-0.6582zm-13.285 0.8223c-0.35154 0.1436-0.75902 0.2148-1.2227 0.2148 0.46363 0 0.87105-0.071 1.2227-0.2148z" fill="#f9f9f9" fill-opacity=".87"/>
 </g>
 <g id="thumbnail-ruby" transform="matrix(.26458 0 0 .26458 5.0271 -99.573)">
  <rect x="15" y="477.36" width="120" height="35" fill="#fafbfc" stroke-width="1.4349"/>
  <rect x="19" y="481.86" width="70" height="27" rx="2" ry="2" fill="#000000" filter="url(#filter4889)" opacity=".32"/>
  <path d="m19 494.36v11.5c0 1.108 0.892 2 2 2h66c1.108 0 2-0.892 2-2v-11.5z" fill="#ffffff"/>
  <path d="m35 494.36v3.3653h3.3613c1.0293 0 1.8252-0.2539 2.3887-0.7598s0.8457-1.2007 0.8457-2.086c0-0.1822-0.02037-0.3534-0.05078-0.5195h-1.293c0.03451 0.1636 0.05859 0.3373 0.05859 0.5332 0 0.5511-0.17347 0.9846-0.51953 1.3008-0.34162 0.3117-0.80978 0.4668-1.4043 0.4668h-2.1094v-2.3008h-1.2773zm8.2715 0v0.8028c0.0044 0.8897 0.20617 1.5633 0.60547 2.0195 0.40374 0.4517 0.99027 0.6777 1.7578 0.6777 0.92726 0 1.6302-0.2877 2.1094-0.8613l0.02734 0.7266h1.1699v-3.3653h-1.2305v1.3653c-0.31057 0.7136-0.93638 1.0703-1.877 1.0703-0.88733 0-1.3301-0.5549-1.3301-1.6661v-0.7695h-1.2324zm7.9727 0v1.5488c0 0.6234 0.14041 1.1047 0.41992 1.4434 0.27951 0.3388 0.694 0.5078 1.2441 0.5078 0.30613 0 0.62144-0.044 0.94531-0.1347v-1.0176c-0.24845 0.054-0.44396 0.082-0.58594 0.082-0.28838 0-0.49154-0.072-0.61133-0.2168-0.11979-0.149-0.17969-0.3705-0.17969-0.6641v-1.5488zm4.4453 0v1.5488c0 0.6234 0.14041 1.1047 0.41992 1.4434 0.27951 0.3388 0.694 0.5078 1.2441 0.5078 0.30613 0 0.62144-0.044 0.94531-0.1347v-1.0176c-0.24845 0.054-0.44396 0.082-0.58594 0.082-0.28838 0-0.49154-0.072-0.61133-0.2168-0.11979-0.149-0.17969-0.3705-0.17969-0.6641v-1.5488zm3.5684 0c0.0477 1.0044 0.3336 1.8317 0.88477 2.4629 0.60782 0.6911 1.3989 1.0371 2.375 1.0371 0.64775 0 1.2218-0.1584 1.7188-0.4746 0.50134-0.3162 0.88419-0.7557 1.1504-1.3203 0.24226-0.5094 0.37108-1.0798 0.39648-1.7051h-1.2422c-0.04564 0.7193-0.21638 1.3038-0.53125 1.7324-0.36824 0.4969-0.86662 0.7442-1.4922 0.7442-0.62113 0-1.1176-0.246-1.4902-0.7383-0.33341-0.4457-0.50752-1.0297-0.53906-1.7383zm8.0781 0v3.3653h1.2324v-3.3653zm4.4336 0v3.3653h1.2305v-3.3653z" fill="#263238" fill-opacity=".87"/>
  <path d="m95.6 485.86c-0.88641 0-1.6 0.7136-1.6 1.6v12.8c0 0.8864 0.71359 1.6 1.6 1.6h12.8c0.88641 0 1.6-0.7136 1.6-1.6v-12.8c0-0.8864-0.71359-1.6-1.6-1.6z" color="#000000" color-rendering="auto" fill="#f0544c" fill-rule="evenodd" image-rendering="auto" shape-rendering="auto" solid-color="#000000" style="isolation:auto;mix-blend-mode:normal"/>
  <path d="m100.24 498.56-4.4444-4.4445 1.2533-1.2533 3.1911 3.1822 6.7467-6.7466 1.2533 1.2622z" fill="#ffffff"/>
  <circle cx="123" cy="493.86" r="7.2001" fill="none" stroke="#f0544c" stroke-width="1.5999"/>
  <circle cx="123" cy="493.86" r="3.2" fill="#f0544c"/>
  <path d="m19 494.36v-11.5c0-1.108 0.892-2 2-2h66c1.108 0 2 0.892 2 2v11.5z" fill="#ffffff"/>
  <path d="m35 487.86v6.5h1.2773v-1.25h2.1309c1.0596 0 1.669 0.4216 1.8438 1.25h1.293c-0.06608-0.3608-0.19856-0.6861-0.4082-0.9707-0.30169-0.4201-0.71476-0.7045-1.2383-0.8535 0.44367-0.1942 0.79345-0.468 1.0508-0.8203 0.25733-0.3569 0.38672-0.7659 0.38672-1.2266-1e-6 -0.8672-0.26643-1.5222-0.79883-1.9648-0.52796-0.4427-1.3177-0.6641-2.3691-0.6641zm16.244 0.7598v1.7734h-1.3105v0.9688h1.3105v2.998h1.2324v-2.998h1.3438v-0.9688h-1.3438v-1.7734zm4.4453 0v1.7734h-1.3105v0.9688h1.3105v2.998h1.2324v-2.998h1.3438v-0.9688h-1.3438v-1.7734zm-19.412 0.3105h1.8906c0.63444 0 1.1074 0.1246 1.418 0.3731 0.31057 0.2439 0.46484 0.6357 0.46484 1.1777 0 0.4878-0.16867 0.8756-0.50586 1.1602-0.33275 0.2845-0.77887 0.4257-1.3379 0.4257h-1.9297zm26.229 1.3281c-0.63444 0-1.2004 0.1552-1.6973 0.4668-0.49247 0.3117-0.87869 0.7545-1.1582 1.3282-0.27507 0.5736-0.41211 1.2193-0.41211 1.9375v0.088c0 0.098 0.01501 0.1861 0.01953 0.2812h1.2305c-0.0033-0.074-0.01367-0.1418-0.01367-0.2187 0-0.9169 0.18787-1.623 0.56055-2.1153s0.86288-0.7383 1.4707-0.7383c0.62113 0 1.1176 0.2506 1.4902 0.752 0.37712 0.4968 0.56445 1.1472 0.56445 1.9512 0 0.1302-0.01179 0.2472-0.01953 0.3691h1.2422c3e-3 -0.073 0.0098-0.1439 0.0098-0.2187v-0.088c0-1.1473-0.30429-2.0668-0.91211-2.7579-0.60339-0.691-1.3945-1.0371-2.375-1.0371zm8.1914 0c-0.88733 0-1.6061 0.3521-2.1562 1.0567l-0.03906-0.9219h-1.166v3.9668h1.2324v-1.8594c0.16859-0.3523 0.40339-0.6367 0.70508-0.8535s0.65148-0.3242 1.0508-0.3242c0.49247 0 0.85523 0.126 1.0859 0.3789 0.23514 0.2529 0.35494 0.6434 0.35938 1.1719v1.4863h1.2305v-1.4805c-0.01331-1.7479-0.78096-2.6211-2.3027-2.6211zm-27.426 0.1348v3.9668h1.2324v-3.9668zm4.4395 0v3.9668h1.2305v-3.9668zm11.547 3.9688c0.01188 0.2483 0.0374 0.4873 0.08008 0.7128-0.04143-0.2263-0.0682-0.4645-0.08008-0.7128zm-17.713 0.01c0.02966 0.1638 0.05078 0.3322 0.05078 0.5117 0-0.1794-0.02128-0.3479-0.05078-0.5117zm24.236 0c-0.01303 0.3041-0.05004 0.5957-0.11328 0.8731 0.06462-0.277 0.10023-0.5685 0.11328-0.8731zm-6.4375 0.7285c0.04288 0.2197 0.09565 0.4311 0.16797 0.6289-0.07066-0.1989-0.12634-0.4084-0.16797-0.6289zm6.3145 0.1797c-0.06529 0.2754-0.15385 0.5378-0.27148 0.7852 0.11749-0.2471 0.205-0.5109 0.27148-0.7852zm-1.2734 0.02c-0.01885 0.062-0.04248 0.1206-0.06445 0.1796 0.02148-0.059 0.04611-0.1167 0.06445-0.1796zm-3.7422 0.017c0.0089 0.029 0.02159 0.055 0.03125 0.084-0.0099-0.028-0.02215-0.055-0.03125-0.084zm3.5879 0.3946c-0.06519 0.1362-0.13605 0.2656-0.2207 0.3808 0.08472-0.1153 0.15648-0.2434 0.2207-0.3808zm-3.4277 0.017c0.06474 0.132 0.13928 0.2551 0.22461 0.3692-0.08532-0.1141-0.15906-0.2379-0.22461-0.3692zm-1.2852 0.014c0.07255 0.196 0.15426 0.3841 0.25586 0.5586-0.10013-0.175-0.18507-0.3618-0.25586-0.5586zm-19.727 0.4512c-0.17081 0.1558-0.37339 0.2717-0.60742 0.3496 0.23406-0.078 0.43661-0.1938 0.60742-0.3496zm20.352 0.6289c0.24817 0.2821 0.53614 0.4912 0.8457 0.6582-0.3099-0.1671-0.5972-0.3757-0.8457-0.6582zm-13.285 0.8223c-0.35154 0.1436-0.75902 0.2148-1.2227 0.2148 0.46363 0 0.87105-0.071 1.2227-0.2148z" fill="#263238" fill-opacity=".87"/>
 </g>
 <g id="thumbnail-doder" transform="matrix(.26458 0 0 .26458 40.574 -99.573)">
  <rect x="15" y="477.36" width="120" height="35" fill="#fafbfc" stroke-width="1.4349"/>
  <rect x="19" y="481.86" width="70" height="27" rx="2" ry="2" fill="#000000" filter="url(#filter4889)" opacity=".32"/>
  <path d="m19 494.36v11.5c0 1.108 0.892 2 2 2h66c1.108 0 2-0.892 2-2v-11.5z" fill="#ffffff"/>
  <path d="m35 494.36v3.3653h3.3613c1.0293 0 1.8252-0.2539 2.3887-0.7598s0.8457-1.2007 0.8457-2.086c0-0.1822-0.02037-0.3534-0.05078-0.5195h-1.293c0.03451 0.1636 0.05859 0.3373 0.05859 0.5332 0 0.5511-0.17347 0.9846-0.51953 1.3008-0.34162 0.3117-0.80978 0.4668-1.4043 0.4668h-2.1094v-2.3008h-1.2773zm8.2715 0v0.8028c0.0044 0.8897 0.20617 1.5633 0.60547 2.0195 0.40374 0.4517 0.99027 0.6777 1.7578 0.6777 0.92726 0 1.6302-0.2877 2.1094-0.8613l0.02734 0.7266h1.1699v-3.3653h-1.2305v1.3653c-0.31057 0.7136-0.93638 1.0703-1.877 1.0703-0.88733 0-1.3301-0.5549-1.3301-1.6661v-0.7695h-1.2324zm7.9727 0v1.5488c0 0.6234 0.14041 1.1047 0.41992 1.4434 0.27951 0.3388 0.694 0.5078 1.2441 0.5078 0.30613 0 0.62144-0.044 0.94531-0.1347v-1.0176c-0.24845 0.054-0.44396 0.082-0.58594 0.082-0.28838 0-0.49154-0.072-0.61133-0.2168-0.11979-0.149-0.17969-0.3705-0.17969-0.6641v-1.5488zm4.4453 0v1.5488c0 0.6234 0.14041 1.1047 0.41992 1.4434 0.27951 0.3388 0.694 0.5078 1.2441 0.5078 0.30613 0 0.62144-0.044 0.94531-0.1347v-1.0176c-0.24845 0.054-0.44396 0.082-0.58594 0.082-0.28838 0-0.49154-0.072-0.61133-0.2168-0.11979-0.149-0.17969-0.3705-0.17969-0.6641v-1.5488zm3.5684 0c0.0477 1.0044 0.3336 1.8317 0.88477 2.4629 0.60782 0.6911 1.3989 1.0371 2.375 1.0371 0.64775 0 1.2218-0.1584 1.7188-0.4746 0.50134-0.3162 0.88419-0.7557 1.1504-1.3203 0.24226-0.5094 0.37108-1.0798 0.39648-1.7051h-1.2422c-0.04564 0.7193-0.21638 1.3038-0.53125 1.7324-0.36824 0.4969-0.86662 0.7442-1.4922 0.7442-0.62113 0-1.1176-0.246-1.4902-0.7383-0.33341-0.4457-0.50752-1.0297-0.53906-1.7383zm8.0781 0v3.3653h1.2324v-3.3653zm4.4336 0v3.3653h1.2305v-3.3653z" fill="#263238" fill-opacity=".87"/>
  <path d="m95.6 485.86c-0.88641 0-1.6 0.7136-1.6 1.6v12.8c0 0.8864 0.71359 1.6 1.6 1.6h12.8c0.88641 0 1.6-0.7136 1.6-1.6v-12.8c0-0.8864-0.71359-1.6-1.6-1.6z" color="#000000" color-rendering="auto" fill="#4285f4" fill-rule="evenodd" image-rendering="auto" shape-rendering="auto" solid-color="#000000" style="isolation:auto;mix-blend-mode:normal"/>
  <path d="m100.24 498.56-4.4444-4.4445 1.2533-1.2533 3.1911 3.1822 6.7467-6.7466 1.2533 1.2622z" fill="#ffffff"/>
  <circle cx="123" cy="493.86" r="7.2001" fill="none" stroke="#4285f4" stroke-width="1.5999"/>
  <circle cx="123" cy="493.86" r="3.2" fill="#4285f4"/>
  <path d="m19 494.36v-11.5c0-1.108 0.892-2 2-2h66c1.108 0 2 0.892 2 2v11.5z" fill="#ffffff"/>
  <path d="m35 487.86v6.5h1.2773v-1.25h2.1309c1.0596 0 1.669 0.4216 1.8438 1.25h1.293c-0.06608-0.3608-0.19856-0.6861-0.4082-0.9707-0.30169-0.4201-0.71476-0.7045-1.2383-0.8535 0.44367-0.1942 0.79345-0.468 1.0508-0.8203 0.25733-0.3569 0.38672-0.7659 0.38672-1.2266-1e-6 -0.8672-0.26643-1.5222-0.79883-1.9648-0.52796-0.4427-1.3177-0.6641-2.3691-0.6641zm16.244 0.7598v1.7734h-1.3105v0.9688h1.3105v2.998h1.2324v-2.998h1.3438v-0.9688h-1.3438v-1.7734zm4.4453 0v1.7734h-1.3105v0.9688h1.3105v2.998h1.2324v-2.998h1.3438v-0.9688h-1.3438v-1.7734zm-19.412 0.3105h1.8906c0.63444 0 1.1074 0.1246 1.418 0.3731 0.31057 0.2439 0.46484 0.6357 0.46484 1.1777 0 0.4878-0.16867 0.8756-0.50586 1.1602-0.33275 0.2845-0.77887 0.4257-1.3379 0.4257h-1.9297zm26.229 1.3281c-0.63444 0-1.2004 0.1552-1.6973 0.4668-0.49247 0.3117-0.87869 0.7545-1.1582 1.3282-0.27507 0.5736-0.41211 1.2193-0.41211 1.9375v0.088c0 0.098 0.01501 0.1861 0.01953 0.2812h1.2305c-0.0033-0.074-0.01367-0.1418-0.01367-0.2187 0-0.9169 0.18787-1.623 0.56055-2.1153s0.86288-0.7383 1.4707-0.7383c0.62113 0 1.1176 0.2506 1.4902 0.752 0.37712 0.4968 0.56445 1.1472 0.56445 1.9512 0 0.1302-0.01179 0.2472-0.01953 0.3691h1.2422c3e-3 -0.073 0.0098-0.1439 0.0098-0.2187v-0.088c0-1.1473-0.30429-2.0668-0.91211-2.7579-0.60339-0.691-1.3945-1.0371-2.375-1.0371zm8.1914 0c-0.88733 0-1.6061 0.3521-2.1562 1.0567l-0.03906-0.9219h-1.166v3.9668h1.2324v-1.8594c0.16859-0.3523 0.40339-0.6367 0.70508-0.8535s0.65148-0.3242 1.0508-0.3242c0.49247 0 0.85523 0.126 1.0859 0.3789 0.23514 0.2529 0.35494 0.6434 0.35938 1.1719v1.4863h1.2305v-1.4805c-0.01331-1.7479-0.78096-2.6211-2.3027-2.6211zm-27.426 0.1348v3.9668h1.2324v-3.9668zm4.4395 0v3.9668h1.2305v-3.9668zm11.547 3.9688c0.01188 0.2483 0.0374 0.4873 0.08008 0.7128-0.04143-0.2263-0.0682-0.4645-0.08008-0.7128zm-17.713 0.01c0.02966 0.1638 0.05078 0.3322 0.05078 0.5117 0-0.1794-0.02128-0.3479-0.05078-0.5117zm24.236 0c-0.01303 0.3041-0.05004 0.5957-0.11328 0.8731 0.06462-0.277 0.10023-0.5685 0.11328-0.8731zm-6.4375 0.7285c0.04288 0.2197 0.09565 0.4311 0.16797 0.6289-0.07066-0.1989-0.12634-0.4084-0.16797-0.6289zm6.3145 0.1797c-0.06529 0.2754-0.15385 0.5378-0.27148 0.7852 0.11749-0.2471 0.205-0.5109 0.27148-0.7852zm-1.2734 0.02c-0.01885 0.062-0.04248 0.1206-0.06445 0.1796 0.02148-0.059 0.04611-0.1167 0.06445-0.1796zm-3.7422 0.017c0.0089 0.029 0.02159 0.055 0.03125 0.084-0.0099-0.028-0.02215-0.055-0.03125-0.084zm3.5879 0.3946c-0.06519 0.1362-0.13605 0.2656-0.2207 0.3808 0.08472-0.1153 0.15648-0.2434 0.2207-0.3808zm-3.4277 0.017c0.06474 0.132 0.13928 0.2551 0.22461 0.3692-0.08532-0.1141-0.15906-0.2379-0.22461-0.3692zm-1.2852 0.014c0.07255 0.196 0.15426 0.3841 0.25586 0.5586-0.10013-0.175-0.18507-0.3618-0.25586-0.5586zm-19.727 0.4512c-0.17081 0.1558-0.37339 0.2717-0.60742 0.3496 0.23406-0.078 0.43661-0.1938 0.60742-0.3496zm20.352 0.6289c0.24817 0.2821 0.53614 0.4912 0.8457 0.6582-0.3099-0.1671-0.5972-0.3757-0.8457-0.6582zm-13.285 0.8223c-0.35154 0.1436-0.75902 0.2148-1.2227 0.2148 0.46363 0 0.87105-0.071 1.2227-0.2148z" fill="#263238" fill-opacity=".87"/>
 </g>
 <g id="thumbnail-beryl" transform="matrix(.26458 0 0 .26458 76.682 -99.573)">
  <rect x="15" y="477.36" width="120" height="35" fill="#fafbfc" stroke-width="1.4349"/>
  <rect x="19" y="481.86" width="70" height="27" rx="2" ry="2" fill="#000000" filter="url(#filter4889)" opacity=".32"/>
  <path d="m19 494.36v11.5c0 1.108 0.892 2 2 2h66c1.108 0 2-0.892 2-2v-11.5z" fill="#ffffff"/>
  <path d="m35 494.36v3.3653h3.3613c1.0293 0 1.8252-0.2539 2.3887-0.7598s0.8457-1.2007 0.8457-2.086c0-0.1822-0.02037-0.3534-0.05078-0.5195h-1.293c0.03451 0.1636 0.05859 0.3373 0.05859 0.5332 0 0.5511-0.17347 0.9846-0.51953 1.3008-0.34162 0.3117-0.80978 0.4668-1.4043 0.4668h-2.1094v-2.3008h-1.2773zm8.2715 0v0.8028c0.0044 0.8897 0.20617 1.5633 0.60547 2.0195 0.40374 0.4517 0.99027 0.6777 1.7578 0.6777 0.92726 0 1.6302-0.2877 2.1094-0.8613l0.02734 0.7266h1.1699v-3.3653h-1.2305v1.3653c-0.31057 0.7136-0.93638 1.0703-1.877 1.0703-0.88733 0-1.3301-0.5549-1.3301-1.6661v-0.7695h-1.2324zm7.9727 0v1.5488c0 0.6234 0.14041 1.1047 0.41992 1.4434 0.27951 0.3388 0.694 0.5078 1.2441 0.5078 0.30613 0 0.62144-0.044 0.94531-0.1347v-1.0176c-0.24845 0.054-0.44396 0.082-0.58594 0.082-0.28838 0-0.49154-0.072-0.61133-0.2168-0.11979-0.149-0.17969-0.3705-0.17969-0.6641v-1.5488zm4.4453 0v1.5488c0 0.6234 0.14041 1.1047 0.41992 1.4434 0.27951 0.3388 0.694 0.5078 1.2441 0.5078 0.30613 0 0.62144-0.044 0.94531-0.1347v-1.0176c-0.24845 0.054-0.44396 0.082-0.58594 0.082-0.28838 0-0.49154-0.072-0.61133-0.2168-0.11979-0.149-0.17969-0.3705-0.17969-0.6641v-1.5488zm3.5684 0c0.0477 1.0044 0.3336 1.8317 0.88477 2.4629 0.60782 0.6911 1.3989 1.0371 2.375 1.0371 0.64775 0 1.2218-0.1584 1.7188-0.4746 0.50134-0.3162 0.88419-0.7557 1.1504-1.3203 0.24226-0.5094 0.37108-1.0798 0.39648-1.7051h-1.2422c-0.04564 0.7193-0.21638 1.3038-0.53125 1.7324-0.36824 0.4969-0.86662 0.7442-1.4922 0.7442-0.62113 0-1.1176-0.246-1.4902-0.7383-0.33341-0.4457-0.50752-1.0297-0.53906-1.7383zm8.0781 0v3.3653h1.2324v-3.3653zm4.4336 0v3.3653h1.2305v-3.3653z" fill="#263238" fill-opacity=".87"/>
  <path d="m95.6 485.86c-0.88641 0-1.6 0.7136-1.6 1.6v12.8c0 0.8864 0.71359 1.6 1.6 1.6h12.8c0.88641 0 1.6-0.7136 1.6-1.6v-12.8c0-0.8864-0.71359-1.6-1.6-1.6z" color="#000000" color-rendering="auto" fill="#2eb398" fill-rule="evenodd" image-rendering="auto" shape-rendering="auto" solid-color="#000000" style="isolation:auto;mix-blend-mode:normal"/>
  <path d="m100.24 498.56-4.4444-4.4445 1.2533-1.2533 3.1911 3.1822 6.7467-6.7466 1.2533 1.2622z" fill="#ffffff"/>
  <circle cx="123" cy="493.86" r="7.2001" fill="none" stroke="#2eb398" stroke-width="1.5999"/>
  <circle cx="123" cy="493.86" r="3.2" fill="#2eb398"/>
  <path d="m19 494.36v-11.5c0-1.108 0.892-2 2-2h66c1.108 0 2 0.892 2 2v11.5z" fill="#ffffff"/>
  <path d="m35 487.86v6.5h1.2773v-1.25h2.1309c1.0596 0 1.669 0.4216 1.8438 1.25h1.293c-0.06608-0.3608-0.19856-0.6861-0.4082-0.9707-0.30169-0.4201-0.71476-0.7045-1.2383-0.8535 0.44367-0.1942 0.79345-0.468 1.0508-0.8203 0.25733-0.3569 0.38672-0.7659 0.38672-1.2266-1e-6 -0.8672-0.26643-1.5222-0.79883-1.9648-0.52796-0.4427-1.3177-0.6641-2.3691-0.6641zm16.244 0.7598v1.7734h-1.3105v0.9688h1.3105v2.998h1.2324v-2.998h1.3438v-0.9688h-1.3438v-1.7734zm4.4453 0v1.7734h-1.3105v0.9688h1.3105v2.998h1.2324v-2.998h1.3438v-0.9688h-1.3438v-1.7734zm-19.412 0.3105h1.8906c0.63444 0 1.1074 0.1246 1.418 0.3731 0.31057 0.2439 0.46484 0.6357 0.46484 1.1777 0 0.4878-0.16867 0.8756-0.50586 1.1602-0.33275 0.2845-0.77887 0.4257-1.3379 0.4257h-1.9297zm26.229 1.3281c-0.63444 0-1.2004 0.1552-1.6973 0.4668-0.49247 0.3117-0.87869 0.7545-1.1582 1.3282-0.27507 0.5736-0.41211 1.2193-0.41211 1.9375v0.088c0 0.098 0.01501 0.1861 0.01953 0.2812h1.2305c-0.0033-0.074-0.01367-0.1418-0.01367-0.2187 0-0.9169 0.18787-1.623 0.56055-2.1153s0.86288-0.7383 1.4707-0.7383c0.62113 0 1.1176 0.2506 1.4902 0.752 0.37712 0.4968 0.56445 1.1472 0.56445 1.9512 0 0.1302-0.01179 0.2472-0.01953 0.3691h1.2422c3e-3 -0.073 0.0098-0.1439 0.0098-0.2187v-0.088c0-1.1473-0.30429-2.0668-0.91211-2.7579-0.60339-0.691-1.3945-1.0371-2.375-1.0371zm8.1914 0c-0.88733 0-1.6061 0.3521-2.1562 1.0567l-0.03906-0.9219h-1.166v3.9668h1.2324v-1.8594c0.16859-0.3523 0.40339-0.6367 0.70508-0.8535s0.65148-0.3242 1.0508-0.3242c0.49247 0 0.85523 0.126 1.0859 0.3789 0.23514 0.2529 0.35494 0.6434 0.35938 1.1719v1.4863h1.2305v-1.4805c-0.01331-1.7479-0.78096-2.6211-2.3027-2.6211zm-27.426 0.1348v3.9668h1.2324v-3.9668zm4.4395 0v3.9668h1.2305v-3.9668zm11.547 3.9688c0.01188 0.2483 0.0374 0.4873 0.08008 0.7128-0.04143-0.2263-0.0682-0.4645-0.08008-0.7128zm-17.713 0.01c0.02966 0.1638 0.05078 0.3322 0.05078 0.5117 0-0.1794-0.02128-0.3479-0.05078-0.5117zm24.236 0c-0.01303 0.3041-0.05004 0.5957-0.11328 0.8731 0.06462-0.277 0.10023-0.5685 0.11328-0.8731zm-6.4375 0.7285c0.04288 0.2197 0.09565 0.4311 0.16797 0.6289-0.07066-0.1989-0.12634-0.4084-0.16797-0.6289zm6.3145 0.1797c-0.06529 0.2754-0.15385 0.5378-0.27148 0.7852 0.11749-0.2471 0.205-0.5109 0.27148-0.7852zm-1.2734 0.02c-0.01885 0.062-0.04248 0.1206-0.06445 0.1796 0.02148-0.059 0.04611-0.1167 0.06445-0.1796zm-3.7422 0.017c0.0089 0.029 0.02159 0.055 0.03125 0.084-0.0099-0.028-0.02215-0.055-0.03125-0.084zm3.5879 0.3946c-0.06519 0.1362-0.13605 0.2656-0.2207 0.3808 0.08472-0.1153 0.15648-0.2434 0.2207-0.3808zm-3.4277 0.017c0.06474 0.132 0.13928 0.2551 0.22461 0.3692-0.08532-0.1141-0.15906-0.2379-0.22461-0.3692zm-1.2852 0.014c0.07255 0.196 0.15426 0.3841 0.25586 0.5586-0.10013-0.175-0.18507-0.3618-0.25586-0.5586zm-19.727 0.4512c-0.17081 0.1558-0.37339 0.2717-0.60742 0.3496 0.23406-0.078 0.43661-0.1938 0.60742-0.3496zm20.352 0.6289c0.24817 0.2821 0.53614 0.4912 0.8457 0.6582-0.3099-0.1671-0.5972-0.3757-0.8457-0.6582zm-13.285 0.8223c-0.35154 0.1436-0.75902 0.2148-1.2227 0.2148 0.46363 0 0.87105-0.071 1.2227-0.2148z" fill="#263238" fill-opacity=".87"/>
 </g>
 <g id="thumbnail-grey" transform="matrix(.26458 0 0 .26458 112.23 -99.573)">
  <rect x="15" y="477.36" width="120" height="35" fill="#fafbfc" stroke-width="1.4349"/>
  <rect x="19" y="481.86" width="70" height="27" rx="2" ry="2" fill="#000000" filter="url(#filter4889)" opacity=".32"/>
  <path d="m19 494.36v11.5c0 1.108 0.892 2 2 2h66c1.108 0 2-0.892 2-2v-11.5z" fill="#ffffff"/>
  <path d="m35 494.36v3.3653h3.3613c1.0293 0 1.8252-0.2539 2.3887-0.7598s0.8457-1.2007 0.8457-2.086c0-0.1822-0.02037-0.3534-0.05078-0.5195h-1.293c0.03451 0.1636 0.05859 0.3373 0.05859 0.5332 0 0.5511-0.17347 0.9846-0.51953 1.3008-0.34162 0.3117-0.80978 0.4668-1.4043 0.4668h-2.1094v-2.3008h-1.2773zm8.2715 0v0.8028c0.0044 0.8897 0.20617 1.5633 0.60547 2.0195 0.40374 0.4517 0.99027 0.6777 1.7578 0.6777 0.92726 0 1.6302-0.2877 2.1094-0.8613l0.02734 0.7266h1.1699v-3.3653h-1.2305v1.3653c-0.31057 0.7136-0.93638 1.0703-1.877 1.0703-0.88733 0-1.3301-0.5549-1.3301-1.6661v-0.7695h-1.2324zm7.9727 0v1.5488c0 0.6234 0.14041 1.1047 0.41992 1.4434 0.27951 0.3388 0.694 0.5078 1.2441 0.5078 0.30613 0 0.62144-0.044 0.94531-0.1347v-1.0176c-0.24845 0.054-0.44396 0.082-0.58594 0.082-0.28838 0-0.49154-0.072-0.61133-0.2168-0.11979-0.149-0.17969-0.3705-0.17969-0.6641v-1.5488zm4.4453 0v1.5488c0 0.6234 0.14041 1.1047 0.41992 1.4434 0.27951 0.3388 0.694 0.5078 1.2441 0.5078 0.30613 0 0.62144-0.044 0.94531-0.1347v-1.0176c-0.24845 0.054-0.44396 0.082-0.58594 0.082-0.28838 0-0.49154-0.072-0.61133-0.2168-0.11979-0.149-0.17969-0.3705-0.17969-0.6641v-1.5488zm3.5684 0c0.0477 1.0044 0.3336 1.8317 0.88477 2.4629 0.60782 0.6911 1.3989 1.0371 2.375 1.0371 0.64775 0 1.2218-0.1584 1.7188-0.4746 0.50134-0.3162 0.88419-0.7557 1.1504-1.3203 0.24226-0.5094 0.37108-1.0798 0.39648-1.7051h-1.2422c-0.04564 0.7193-0.21638 1.3038-0.53125 1.7324-0.36824 0.4969-0.86662 0.7442-1.4922 0.7442-0.62113 0-1.1176-0.246-1.4902-0.7383-0.33341-0.4457-0.50752-1.0297-0.53906-1.7383zm8.0781 0v3.3653h1.2324v-3.3653zm4.4336 0v3.3653h1.2305v-3.3653z" fill="#263238" fill-opacity=".87"/>
  <path d="m95.6 485.86c-0.88641 0-1.6 0.7136-1.6 1.6v12.8c0 0.8864 0.71359 1.6 1.6 1.6h12.8c0.88641 0 1.6-0.7136 1.6-1.6v-12.8c0-0.8864-0.71359-1.6-1.6-1.6z" color="#000000" color-rendering="auto" fill="#444444" fill-rule="evenodd" image-rendering="auto" shape-rendering="auto" solid-color="#000000" style="isolation:auto;mix-blend-mode:normal"/>
  <path d="m100.24 498.56-4.4444-4.4445 1.2533-1.2533 3.1911 3.1822 6.7467-6.7466 1.2533 1.2622z" fill="#ffffff"/>
  <circle cx="123" cy="493.86" r="7.2001" fill="none" stroke="#444444" stroke-width="1.5999"/>
  <circle cx="123" cy="493.86" r="3.2" fill="#444444"/>
  <path d="m19 494.36v-11.5c0-1.108 0.892-2 2-2h66c1.108 0 2 0.892 2 2v11.5z" fill="#ffffff"/>
  <path d="m35 487.86v6.5h1.2773v-1.25h2.1309c1.0596 0 1.669 0.4216 1.8438 1.25h1.293c-0.06608-0.3608-0.19856-0.6861-0.4082-0.9707-0.30169-0.4201-0.71476-0.7045-1.2383-0.8535 0.44367-0.1942 0.79345-0.468 1.0508-0.8203 0.25733-0.3569 0.38672-0.7659 0.38672-1.2266-1e-6 -0.8672-0.26643-1.5222-0.79883-1.9648-0.52796-0.4427-1.3177-0.6641-2.3691-0.6641zm16.244 0.7598v1.7734h-1.3105v0.9688h1.3105v2.998h1.2324v-2.998h1.3438v-0.9688h-1.3438v-1.7734zm4.4453 0v1.7734h-1.3105v0.9688h1.3105v2.998h1.2324v-2.998h1.3438v-0.9688h-1.3438v-1.7734zm-19.412 0.3105h1.8906c0.63444 0 1.1074 0.1246 1.418 0.3731 0.31057 0.2439 0.46484 0.6357 0.46484 1.1777 0 0.4878-0.16867 0.8756-0.50586 1.1602-0.33275 0.2845-0.77887 0.4257-1.3379 0.4257h-1.9297zm26.229 1.3281c-0.63444 0-1.2004 0.1552-1.6973 0.4668-0.49247 0.3117-0.87869 0.7545-1.1582 1.3282-0.27507 0.5736-0.41211 1.2193-0.41211 1.9375v0.088c0 0.098 0.01501 0.1861 0.01953 0.2812h1.2305c-0.0033-0.074-0.01367-0.1418-0.01367-0.2187 0-0.9169 0.18787-1.623 0.56055-2.1153s0.86288-0.7383 1.4707-0.7383c0.62113 0 1.1176 0.2506 1.4902 0.752 0.37712 0.4968 0.56445 1.1472 0.56445 1.9512 0 0.1302-0.01179 0.2472-0.01953 0.3691h1.2422c3e-3 -0.073 0.0098-0.1439 0.0098-0.2187v-0.088c0-1.1473-0.30429-2.0668-0.91211-2.7579-0.60339-0.691-1.3945-1.0371-2.375-1.0371zm8.1914 0c-0.88733 0-1.6061 0.3521-2.1562 1.0567l-0.03906-0.9219h-1.166v3.9668h1.2324v-1.8594c0.16859-0.3523 0.40339-0.6367 0.70508-0.8535s0.65148-0.3242 1.0508-0.3242c0.49247 0 0.85523 0.126 1.0859 0.3789 0.23514 0.2529 0.35494 0.6434 0.35938 1.1719v1.4863h1.2305v-1.4805c-0.01331-1.7479-0.78096-2.6211-2.3027-2.6211zm-27.426 0.1348v3.9668h1.2324v-3.9668zm4.4395 0v3.9668h1.2305v-3.9668zm11.547 3.9688c0.01188 0.2483 0.0374 0.4873 0.08008 0.7128-0.04143-0.2263-0.0682-0.4645-0.08008-0.7128zm-17.713 0.01c0.02966 0.1638 0.05078 0.3322 0.05078 0.5117 0-0.1794-0.02128-0.3479-0.05078-0.5117zm24.236 0c-0.01303 0.3041-0.05004 0.5957-0.11328 0.8731 0.06462-0.277 0.10023-0.5685 0.11328-0.8731zm-6.4375 0.7285c0.04288 0.2197 0.09565 0.4311 0.16797 0.6289-0.07066-0.1989-0.12634-0.4084-0.16797-0.6289zm6.3145 0.1797c-0.06529 0.2754-0.15385 0.5378-0.27148 0.7852 0.11749-0.2471 0.205-0.5109 0.27148-0.7852zm-1.2734 0.02c-0.01885 0.062-0.04248 0.1206-0.06445 0.1796 0.02148-0.059 0.04611-0.1167 0.06445-0.1796zm-3.7422 0.017c0.0089 0.029 0.02159 0.055 0.03125 0.084-0.0099-0.028-0.02215-0.055-0.03125-0.084zm3.5879 0.3946c-0.06519 0.1362-0.13605 0.2656-0.2207 0.3808 0.08472-0.1153 0.15648-0.2434 0.2207-0.3808zm-3.4277 0.017c0.06474 0.132 0.13928 0.2551 0.22461 0.3692-0.08532-0.1141-0.15906-0.2379-0.22461-0.3692zm-1.2852 0.014c0.07255 0.196 0.15426 0.3841 0.25586 0.5586-0.10013-0.175-0.18507-0.3618-0.25586-0.5586zm-19.727 0.4512c-0.17081 0.1558-0.37339 0.2717-0.60742 0.3496 0.23406-0.078 0.43661-0.1938 0.60742-0.3496zm20.352 0.6289c0.24817 0.2821 0.53614 0.4912 0.8457 0.6582-0.3099-0.1671-0.5972-0.3757-0.8457-0.6582zm-13.285 0.8223c-0.35154 0.1436-0.75902 0.2148-1.2227 0.2148 0.46363 0 0.87105-0.071 1.2227-0.2148z" fill="#263238" fill-opacity=".87"/>
 </g>
 <g id="thumbnail-light-amethyst" transform="matrix(.26458 0 0 .26458 148.43 -111.48)">
  <rect x="15" y="477.36" width="120" height="35" fill="#fafbfc" stroke-width="1.4349"/>
  <rect x="19" y="481.86" width="70" height="27" rx="2" ry="2" fill="#000000" filter="url(#filter4889-36)" opacity=".32"/>
  <path d="m19 494.36v11.5c0 1.108 0.892 2 2 2h66c1.108 0 2-0.892 2-2v-11.5z" fill="#ffffff"/>
  <path d="m35 494.36v3.3653h3.3613c1.0293 0 1.8252-0.2539 2.3887-0.7598s0.8457-1.2007 0.8457-2.086c0-0.1822-0.02037-0.3534-0.05078-0.5195h-1.293c0.03451 0.1636 0.05859 0.3373 0.05859 0.5332 0 0.5511-0.17347 0.9846-0.51953 1.3008-0.34162 0.3117-0.80978 0.4668-1.4043 0.4668h-2.1094v-2.3008h-1.2773zm8.2715 0v0.8028c0.0044 0.8897 0.20617 1.5633 0.60547 2.0195 0.40374 0.4517 0.99027 0.6777 1.7578 0.6777 0.92726 0 1.6302-0.2877 2.1094-0.8613l0.02734 0.7266h1.1699v-3.3653h-1.2305v1.3653c-0.31057 0.7136-0.93638 1.0703-1.877 1.0703-0.88733 0-1.3301-0.5549-1.3301-1.6661v-0.7695h-1.2324zm7.9727 0v1.5488c0 0.6234 0.14041 1.1047 0.41992 1.4434 0.27951 0.3388 0.694 0.5078 1.2441 0.5078 0.30613 0 0.62144-0.044 0.94531-0.1347v-1.0176c-0.24845 0.054-0.44396 0.082-0.58594 0.082-0.28838 0-0.49154-0.072-0.61133-0.2168-0.11979-0.149-0.17969-0.3705-0.17969-0.6641v-1.5488zm4.4453 0v1.5488c0 0.6234 0.14041 1.1047 0.41992 1.4434 0.27951 0.3388 0.694 0.5078 1.2441 0.5078 0.30613 0 0.62144-0.044 0.94531-0.1347v-1.0176c-0.24845 0.054-0.44396 0.082-0.58594 0.082-0.28838 0-0.49154-0.072-0.61133-0.2168-0.11979-0.149-0.17969-0.3705-0.17969-0.6641v-1.5488zm3.5684 0c0.0477 1.0044 0.3336 1.8317 0.88477 2.4629 0.60782 0.6911 1.3989 1.0371 2.375 1.0371 0.64775 0 1.2218-0.1584 1.7188-0.4746 0.50134-0.3162 0.88419-0.7557 1.1504-1.3203 0.24226-0.5094 0.37108-1.0798 0.39648-1.7051h-1.2422c-0.04564 0.7193-0.21638 1.3038-0.53125 1.7324-0.36824 0.4969-0.86662 0.7442-1.4922 0.7442-0.62113 0-1.1176-0.246-1.4902-0.7383-0.33341-0.4457-0.50752-1.0297-0.53906-1.7383zm8.0781 0v3.3653h1.2324v-3.3653zm4.4336 0v3.3653h1.2305v-3.3653z" fill="#263238" fill-opacity=".87"/>
  <path d="m95.6 485.86c-0.88641 0-1.6 0.7136-1.6 1.6v12.8c0 0.8864 0.71359 1.6 1.6 1.6h12.8c0.88641 0 1.6-0.7136 1.6-1.6v-12.8c0-0.8864-0.71359-1.6-1.6-1.6z" color="#000000" color-rendering="auto" fill="#ec407a" fill-rule="evenodd" image-rendering="auto" shape-rendering="auto" solid-color="#000000" style="isolation:auto;mix-blend-mode:normal"/>
  <path d="m100.24 498.56-4.4444-4.4445 1.2533-1.2533 3.1911 3.1822 6.7467-6.7466 1.2533 1.2622z" fill="#ffffff"/>
  <circle cx="123" cy="493.86" r="7.2001" fill="none" stroke="#ec407a" stroke-width="1.5999"/>
  <circle cx="123" cy="493.86" r="3.2" fill="#ec407a"/>
  <path d="m19 494.36v-11.5c0-1.108 0.892-2 2-2h66c1.108 0 2 0.892 2 2v11.5z" fill="#ffffff"/>
  <path d="m35 487.86v6.5h1.2773v-1.25h2.1309c1.0596 0 1.669 0.4216 1.8438 1.25h1.293c-0.06608-0.3608-0.19856-0.6861-0.4082-0.9707-0.30169-0.4201-0.71476-0.7045-1.2383-0.8535 0.44367-0.1942 0.79345-0.468 1.0508-0.8203 0.25733-0.3569 0.38672-0.7659 0.38672-1.2266-1e-6 -0.8672-0.26643-1.5222-0.79883-1.9648-0.52796-0.4427-1.3177-0.6641-2.3691-0.6641zm16.244 0.7598v1.7734h-1.3105v0.9688h1.3105v2.998h1.2324v-2.998h1.3438v-0.9688h-1.3438v-1.7734zm4.4453 0v1.7734h-1.3105v0.9688h1.3105v2.998h1.2324v-2.998h1.3438v-0.9688h-1.3438v-1.7734zm-19.412 0.3105h1.8906c0.63444 0 1.1074 0.1246 1.418 0.3731 0.31057 0.2439 0.46484 0.6357 0.46484 1.1777 0 0.4878-0.16867 0.8756-0.50586 1.1602-0.33275 0.2845-0.77887 0.4257-1.3379 0.4257h-1.9297zm26.229 1.3281c-0.63444 0-1.2004 0.1552-1.6973 0.4668-0.49247 0.3117-0.87869 0.7545-1.1582 1.3282-0.27507 0.5736-0.41211 1.2193-0.41211 1.9375v0.088c0 0.098 0.01501 0.1861 0.01953 0.2812h1.2305c-0.0033-0.074-0.01367-0.1418-0.01367-0.2187 0-0.9169 0.18787-1.623 0.56055-2.1153s0.86288-0.7383 1.4707-0.7383c0.62113 0 1.1176 0.2506 1.4902 0.752 0.37712 0.4968 0.56445 1.1472 0.56445 1.9512 0 0.1302-0.01179 0.2472-0.01953 0.3691h1.2422c3e-3 -0.073 0.0098-0.1439 0.0098-0.2187v-0.088c0-1.1473-0.30429-2.0668-0.91211-2.7579-0.60339-0.691-1.3945-1.0371-2.375-1.0371zm8.1914 0c-0.88733 0-1.6061 0.3521-2.1562 1.0567l-0.03906-0.9219h-1.166v3.9668h1.2324v-1.8594c0.16859-0.3523 0.40339-0.6367 0.70508-0.8535s0.65148-0.3242 1.0508-0.3242c0.49247 0 0.85523 0.126 1.0859 0.3789 0.23514 0.2529 0.35494 0.6434 0.35938 1.1719v1.4863h1.2305v-1.4805c-0.01331-1.7479-0.78096-2.6211-2.3027-2.6211zm-27.426 0.1348v3.9668h1.2324v-3.9668zm4.4395 0v3.9668h1.2305v-3.9668zm11.547 3.9688c0.01188 0.2483 0.0374 0.4873 0.08008 0.7128-0.04143-0.2263-0.0682-0.4645-0.08008-0.7128zm-17.713 0.01c0.02966 0.1638 0.05078 0.3322 0.05078 0.5117 0-0.1794-0.02128-0.3479-0.05078-0.5117zm24.236 0c-0.01303 0.3041-0.05004 0.5957-0.11328 0.8731 0.06462-0.277 0.10023-0.5685 0.11328-0.8731zm-6.4375 0.7285c0.04288 0.2197 0.09565 0.4311 0.16797 0.6289-0.07066-0.1989-0.12634-0.4084-0.16797-0.6289zm6.3145 0.1797c-0.06529 0.2754-0.15385 0.5378-0.27148 0.7852 0.11749-0.2471 0.205-0.5109 0.27148-0.7852zm-1.2734 0.02c-0.01885 0.062-0.04248 0.1206-0.06445 0.1796 0.02148-0.059 0.04611-0.1167 0.06445-0.1796zm-3.7422 0.017c0.0089 0.029 0.02159 0.055 0.03125 0.084-0.0099-0.028-0.02215-0.055-0.03125-0.084zm3.5879 0.3946c-0.06519 0.1362-0.13605 0.2656-0.2207 0.3808 0.08472-0.1153 0.15648-0.2434 0.2207-0.3808zm-3.4277 0.017c0.06474 0.132 0.13928 0.2551 0.22461 0.3692-0.08532-0.1141-0.15906-0.2379-0.22461-0.3692zm-1.2852 0.014c0.07255 0.196 0.15426 0.3841 0.25586 0.5586-0.10013-0.175-0.18507-0.3618-0.25586-0.5586zm-19.727 0.4512c-0.17081 0.1558-0.37339 0.2717-0.60742 0.3496 0.23406-0.078 0.43661-0.1938 0.60742-0.3496zm20.352 0.6289c0.24817 0.2821 0.53614 0.4912 0.8457 0.6582-0.3099-0.1671-0.5972-0.3757-0.8457-0.6582zm-13.285 0.8223c-0.35154 0.1436-0.75902 0.2148-1.2227 0.2148 0.46363 0 0.87105-0.071 1.2227-0.2148z" fill="#263238" fill-opacity=".87"/>
 </g>
 <g id="thumbnail-dark-amethyst" transform="matrix(.26458 0 0 .26458 148.43 -123.39)">
  <rect x="15" y="477.36" width="120" height="35" fill="#444851" stroke-width="1.4349"/>
  <rect x="19" y="481.86" width="70" height="27" rx="2" ry="2" fill="#000000" filter="url(#filter4889-3-5)" opacity=".32"/>
  <path d="m19 494.36v11.5c0 1.108 0.892 2 2 2h66c1.108 0 2-0.892 2-2v-11.5z" fill="#444851"/>
  <path d="m35 494.36v3.3653h3.3613c1.0293 0 1.8252-0.2539 2.3887-0.7598s0.8457-1.2007 0.8457-2.086c0-0.1822-0.02037-0.3534-0.05078-0.5195h-1.293c0.03451 0.1636 0.05859 0.3373 0.05859 0.5332 0 0.5511-0.17347 0.9846-0.51953 1.3008-0.34162 0.3117-0.80978 0.4668-1.4043 0.4668h-2.1094v-2.3008h-1.2773zm8.2715 0v0.8028c0.0044 0.8897 0.20617 1.5633 0.60547 2.0195 0.40374 0.4517 0.99027 0.6777 1.7578 0.6777 0.92726 0 1.6302-0.2877 2.1094-0.8613l0.02734 0.7266h1.1699v-3.3653h-1.2305v1.3653c-0.31057 0.7136-0.93638 1.0703-1.877 1.0703-0.88733 0-1.3301-0.5549-1.3301-1.6661v-0.7695h-1.2324zm7.9727 0v1.5488c0 0.6234 0.14041 1.1047 0.41992 1.4434 0.27951 0.3388 0.694 0.5078 1.2441 0.5078 0.30613 0 0.62144-0.044 0.94531-0.1347v-1.0176c-0.24845 0.054-0.44396 0.082-0.58594 0.082-0.28838 0-0.49154-0.072-0.61133-0.2168-0.11979-0.149-0.17969-0.3705-0.17969-0.6641v-1.5488zm4.4453 0v1.5488c0 0.6234 0.14041 1.1047 0.41992 1.4434 0.27951 0.3388 0.694 0.5078 1.2441 0.5078 0.30613 0 0.62144-0.044 0.94531-0.1347v-1.0176c-0.24845 0.054-0.44396 0.082-0.58594 0.082-0.28838 0-0.49154-0.072-0.61133-0.2168-0.11979-0.149-0.17969-0.3705-0.17969-0.6641v-1.5488zm3.5684 0c0.0477 1.0044 0.3336 1.8317 0.88477 2.4629 0.60782 0.6911 1.3989 1.0371 2.375 1.0371 0.64775 0 1.2218-0.1584 1.7188-0.4746 0.50134-0.3162 0.88419-0.7557 1.1504-1.3203 0.24226-0.5094 0.37108-1.0798 0.39648-1.7051h-1.2422c-0.04564 0.7193-0.21638 1.3038-0.53125 1.7324-0.36824 0.4969-0.86662 0.7442-1.4922 0.7442-0.62113 0-1.1176-0.246-1.4902-0.7383-0.33341-0.4457-0.50752-1.0297-0.53906-1.7383zm8.0781 0v3.3653h1.2324v-3.3653zm4.4336 0v3.3653h1.2305v-3.3653z" fill="#e2e2e2"/>
  <path d="m95.6 485.86c-0.88641 0-1.6 0.7136-1.6 1.6v12.8c0 0.8864 0.71359 1.6 1.6 1.6h12.8c0.88641 0 1.6-0.7136 1.6-1.6v-12.8c0-0.8864-0.71359-1.6-1.6-1.6z" color="#000000" color-rendering="auto" fill="#ec407a" fill-rule="evenodd" image-rendering="auto" shape-rendering="auto" solid-color="#000000" style="isolation:auto;mix-blend-mode:normal"/>
  <path d="m100.24 498.56-4.4444-4.4445 1.2533-1.2533 3.1911 3.1822 6.7467-6.7466 1.2533 1.2622z" fill="#ffffff"/>
  <circle cx="123" cy="493.86" r="7.2001" fill="none" stroke="#ec407a" stroke-width="1.5999"/>
  <circle cx="123" cy="493.86" r="3.2" fill="#ec407a"/>
  <path d="m19 494.36v-11.5c0-1.108 0.892-2 2-2h66c1.108 0 2 0.892 2 2v11.5z" fill="#444851"/>
  <path d="m35 487.86v6.5h1.2773v-1.25h2.1309c1.0596 0 1.669 0.4216 1.8438 1.25h1.293c-0.06608-0.3608-0.19856-0.6861-0.4082-0.9707-0.30169-0.4201-0.71476-0.7045-1.2383-0.8535 0.44367-0.1942 0.79345-0.468 1.0508-0.8203 0.25733-0.3569 0.38672-0.7659 0.38672-1.2266-1e-6 -0.8672-0.26643-1.5222-0.79883-1.9648-0.52796-0.4427-1.3177-0.6641-2.3691-0.6641zm16.244 0.7598v1.7734h-1.3105v0.9688h1.3105v2.998h1.2324v-2.998h1.3438v-0.9688h-1.3438v-1.7734zm4.4453 0v1.7734h-1.3105v0.9688h1.3105v2.998h1.2324v-2.998h1.3438v-0.9688h-1.3438v-1.7734zm-19.412 0.3105h1.8906c0.63444 0 1.1074 0.1246 1.418 0.3731 0.31057 0.2439 0.46484 0.6357 0.46484 1.1777 0 0.4878-0.16867 0.8756-0.50586 1.1602-0.33275 0.2845-0.77887 0.4257-1.3379 0.4257h-1.9297zm26.229 1.3281c-0.63444 0-1.2004 0.1552-1.6973 0.4668-0.49247 0.3117-0.87869 0.7545-1.1582 1.3282-0.27507 0.5736-0.41211 1.2193-0.41211 1.9375v0.088c0 0.098 0.01501 0.1861 0.01953 0.2812h1.2305c-0.0033-0.074-0.01367-0.1418-0.01367-0.2187 0-0.9169 0.18787-1.623 0.56055-2.1153s0.86288-0.7383 1.4707-0.7383c0.62113 0 1.1176 0.2506 1.4902 0.752 0.37712 0.4968 0.56445 1.1472 0.56445 1.9512 0 0.1302-0.01179 0.2472-0.01953 0.3691h1.2422c3e-3 -0.073 0.0098-0.1439 0.0098-0.2187v-0.088c0-1.1473-0.30429-2.0668-0.91211-2.7579-0.60339-0.691-1.3945-1.0371-2.375-1.0371zm8.1914 0c-0.88733 0-1.6061 0.3521-2.1562 1.0567l-0.03906-0.9219h-1.166v3.9668h1.2324v-1.8594c0.16859-0.3523 0.40339-0.6367 0.70508-0.8535s0.65148-0.3242 1.0508-0.3242c0.49247 0 0.85523 0.126 1.0859 0.3789 0.23514 0.2529 0.35494 0.6434 0.35938 1.1719v1.4863h1.2305v-1.4805c-0.01331-1.7479-0.78096-2.6211-2.3027-2.6211zm-27.426 0.1348v3.9668h1.2324v-3.9668zm4.4395 0v3.9668h1.2305v-3.9668zm11.547 3.9688c0.01188 0.2483 0.0374 0.4873 0.08008 0.7128-0.04143-0.2263-0.0682-0.4645-0.08008-0.7128zm-17.713 0.01c0.02966 0.1638 0.05078 0.3322 0.05078 0.5117 0-0.1794-0.02128-0.3479-0.05078-0.5117zm24.236 0c-0.01303 0.3041-0.05004 0.5957-0.11328 0.8731 0.06462-0.277 0.10023-0.5685 0.11328-0.8731zm-6.4375 0.7285c0.04288 0.2197 0.09565 0.4311 0.16797 0.6289-0.07066-0.1989-0.12634-0.4084-0.16797-0.6289zm6.3145 0.1797c-0.06529 0.2754-0.15385 0.5378-0.27148 0.7852 0.11749-0.2471 0.205-0.5109 0.27148-0.7852zm-1.2734 0.02c-0.01885 0.062-0.04248 0.1206-0.06445 0.1796 0.02148-0.059 0.04611-0.1167 0.06445-0.1796zm-3.7422 0.017c0.0089 0.029 0.02159 0.055 0.03125 0.084-0.0099-0.028-0.02215-0.055-0.03125-0.084zm3.5879 0.3946c-0.06519 0.1362-0.13605 0.2656-0.2207 0.3808 0.08472-0.1153 0.15648-0.2434 0.2207-0.3808zm-3.4277 0.017c0.06474 0.132 0.13928 0.2551 0.22461 0.3692-0.08532-0.1141-0.15906-0.2379-0.22461-0.3692zm-1.2852 0.014c0.07255 0.196 0.15426 0.3841 0.25586 0.5586-0.10013-0.175-0.18507-0.3618-0.25586-0.5586zm-19.727 0.4512c-0.17081 0.1558-0.37339 0.2717-0.60742 0.3496 0.23406-0.078 0.43661-0.1938 0.60742-0.3496zm20.352 0.6289c0.24817 0.2821 0.53614 0.4912 0.8457 0.6582-0.3099-0.1671-0.5972-0.3757-0.8457-0.6582zm-13.285 0.8223c-0.35154 0.1436-0.75902 0.2148-1.2227 0.2148 0.46363 0 0.87105-0.071 1.2227-0.2148z" fill="#f9f9f9" fill-opacity=".87"/>
 </g>
 <g id="thumbnail-amethyst" transform="matrix(.26458 0 0 .26458 148.43 -99.573)">
  <rect x="15" y="477.36" width="120" height="35" fill="#fafbfc" stroke-width="1.4349"/>
  <rect x="19" y="481.86" width="70" height="27" rx="2" ry="2" fill="#000000" filter="url(#filter4889-36)" opacity=".32"/>
  <path d="m19 494.36v11.5c0 1.108 0.892 2 2 2h66c1.108 0 2-0.892 2-2v-11.5z" fill="#ffffff"/>
  <path d="m35 494.36v3.3653h3.3613c1.0293 0 1.8252-0.2539 2.3887-0.7598s0.8457-1.2007 0.8457-2.086c0-0.1822-0.02037-0.3534-0.05078-0.5195h-1.293c0.03451 0.1636 0.05859 0.3373 0.05859 0.5332 0 0.5511-0.17347 0.9846-0.51953 1.3008-0.34162 0.3117-0.80978 0.4668-1.4043 0.4668h-2.1094v-2.3008h-1.2773zm8.2715 0v0.8028c0.0044 0.8897 0.20617 1.5633 0.60547 2.0195 0.40374 0.4517 0.99027 0.6777 1.7578 0.6777 0.92726 0 1.6302-0.2877 2.1094-0.8613l0.02734 0.7266h1.1699v-3.3653h-1.2305v1.3653c-0.31057 0.7136-0.93638 1.0703-1.877 1.0703-0.88733 0-1.3301-0.5549-1.3301-1.6661v-0.7695h-1.2324zm7.9727 0v1.5488c0 0.6234 0.14041 1.1047 0.41992 1.4434 0.27951 0.3388 0.694 0.5078 1.2441 0.5078 0.30613 0 0.62144-0.044 0.94531-0.1347v-1.0176c-0.24845 0.054-0.44396 0.082-0.58594 0.082-0.28838 0-0.49154-0.072-0.61133-0.2168-0.11979-0.149-0.17969-0.3705-0.17969-0.6641v-1.5488zm4.4453 0v1.5488c0 0.6234 0.14041 1.1047 0.41992 1.4434 0.27951 0.3388 0.694 0.5078 1.2441 0.5078 0.30613 0 0.62144-0.044 0.94531-0.1347v-1.0176c-0.24845 0.054-0.44396 0.082-0.58594 0.082-0.28838 0-0.49154-0.072-0.61133-0.2168-0.11979-0.149-0.17969-0.3705-0.17969-0.6641v-1.5488zm3.5684 0c0.0477 1.0044 0.3336 1.8317 0.88477 2.4629 0.60782 0.6911 1.3989 1.0371 2.375 1.0371 0.64775 0 1.2218-0.1584 1.7188-0.4746 0.50134-0.3162 0.88419-0.7557 1.1504-1.3203 0.24226-0.5094 0.37108-1.0798 0.39648-1.7051h-1.2422c-0.04564 0.7193-0.21638 1.3038-0.53125 1.7324-0.36824 0.4969-0.86662 0.7442-1.4922 0.7442-0.62113 0-1.1176-0.246-1.4902-0.7383-0.33341-0.4457-0.50752-1.0297-0.53906-1.7383zm8.0781 0v3.3653h1.2324v-3.3653zm4.4336 0v3.3653h1.2305v-3.3653z" fill="#263238" fill-opacity=".87"/>
  <path d="m95.6 485.86c-0.88641 0-1.6 0.7136-1.6 1.6v12.8c0 0.8864 0.71359 1.6 1.6 1.6h12.8c0.88641 0 1.6-0.7136 1.6-1.6v-12.8c0-0.8864-0.71359-1.6-1.6-1.6z" color="#000000" color-rendering="auto" fill="#ec407a" fill-rule="evenodd" image-rendering="auto" shape-rendering="auto" solid-color="#000000" style="isolation:auto;mix-blend-mode:normal"/>
  <path d="m100.24 498.56-4.4444-4.4445 1.2533-1.2533 3.1911 3.1822 6.7467-6.7466 1.2533 1.2622z" fill="#ffffff"/>
  <circle cx="123" cy="493.86" r="7.2001" fill="none" stroke="#ec407a" stroke-width="1.5999"/>
  <circle cx="123" cy="493.86" r="3.2" fill="#ec407a"/>
  <path d="m19 494.36v-11.5c0-1.108 0.892-2 2-2h66c1.108 0 2 0.892 2 2v11.5z" fill="#ffffff"/>
  <path d="m35 487.86v6.5h1.2773v-1.25h2.1309c1.0596 0 1.669 0.4216 1.8438 1.25h1.293c-0.06608-0.3608-0.19856-0.6861-0.4082-0.9707-0.30169-0.4201-0.71476-0.7045-1.2383-0.8535 0.44367-0.1942 0.79345-0.468 1.0508-0.8203 0.25733-0.3569 0.38672-0.7659 0.38672-1.2266-1e-6 -0.8672-0.26643-1.5222-0.79883-1.9648-0.52796-0.4427-1.3177-0.6641-2.3691-0.6641zm16.244 0.7598v1.7734h-1.3105v0.9688h1.3105v2.998h1.2324v-2.998h1.3438v-0.9688h-1.3438v-1.7734zm4.4453 0v1.7734h-1.3105v0.9688h1.3105v2.998h1.2324v-2.998h1.3438v-0.9688h-1.3438v-1.7734zm-19.412 0.3105h1.8906c0.63444 0 1.1074 0.1246 1.418 0.3731 0.31057 0.2439 0.46484 0.6357 0.46484 1.1777 0 0.4878-0.16867 0.8756-0.50586 1.1602-0.33275 0.2845-0.77887 0.4257-1.3379 0.4257h-1.9297zm26.229 1.3281c-0.63444 0-1.2004 0.1552-1.6973 0.4668-0.49247 0.3117-0.87869 0.7545-1.1582 1.3282-0.27507 0.5736-0.41211 1.2193-0.41211 1.9375v0.088c0 0.098 0.01501 0.1861 0.01953 0.2812h1.2305c-0.0033-0.074-0.01367-0.1418-0.01367-0.2187 0-0.9169 0.18787-1.623 0.56055-2.1153s0.86288-0.7383 1.4707-0.7383c0.62113 0 1.1176 0.2506 1.4902 0.752 0.37712 0.4968 0.56445 1.1472 0.56445 1.9512 0 0.1302-0.01179 0.2472-0.01953 0.3691h1.2422c3e-3 -0.073 0.0098-0.1439 0.0098-0.2187v-0.088c0-1.1473-0.30429-2.0668-0.91211-2.7579-0.60339-0.691-1.3945-1.0371-2.375-1.0371zm8.1914 0c-0.88733 0-1.6061 0.3521-2.1562 1.0567l-0.03906-0.9219h-1.166v3.9668h1.2324v-1.8594c0.16859-0.3523 0.40339-0.6367 0.70508-0.8535s0.65148-0.3242 1.0508-0.3242c0.49247 0 0.85523 0.126 1.0859 0.3789 0.23514 0.2529 0.35494 0.6434 0.35938 1.1719v1.4863h1.2305v-1.4805c-0.01331-1.7479-0.78096-2.6211-2.3027-2.6211zm-27.426 0.1348v3.9668h1.2324v-3.9668zm4.4395 0v3.9668h1.2305v-3.9668zm11.547 3.9688c0.01188 0.2483 0.0374 0.4873 0.08008 0.7128-0.04143-0.2263-0.0682-0.4645-0.08008-0.7128zm-17.713 0.01c0.02966 0.1638 0.05078 0.3322 0.05078 0.5117 0-0.1794-0.02128-0.3479-0.05078-0.5117zm24.236 0c-0.01303 0.3041-0.05004 0.5957-0.11328 0.8731 0.06462-0.277 0.10023-0.5685 0.11328-0.8731zm-6.4375 0.7285c0.04288 0.2197 0.09565 0.4311 0.16797 0.6289-0.07066-0.1989-0.12634-0.4084-0.16797-0.6289zm6.3145 0.1797c-0.06529 0.2754-0.15385 0.5378-0.27148 0.7852 0.11749-0.2471 0.205-0.5109 0.27148-0.7852zm-1.2734 0.02c-0.01885 0.062-0.04248 0.1206-0.06445 0.1796 0.02148-0.059 0.04611-0.1167 0.06445-0.1796zm-3.7422 0.017c0.0089 0.029 0.02159 0.055 0.03125 0.084-0.0099-0.028-0.02215-0.055-0.03125-0.084zm3.5879 0.3946c-0.06519 0.1362-0.13605 0.2656-0.2207 0.3808 0.08472-0.1153 0.15648-0.2434 0.2207-0.3808zm-3.4277 0.017c0.06474 0.132 0.13928 0.2551 0.22461 0.3692-0.08532-0.1141-0.15906-0.2379-0.22461-0.3692zm-1.2852 0.014c0.07255 0.196 0.15426 0.3841 0.25586 0.5586-0.10013-0.175-0.18507-0.3618-0.25586-0.5586zm-19.727 0.4512c-0.17081 0.1558-0.37339 0.2717-0.60742 0.3496 0.23406-0.078 0.43661-0.1938 0.60742-0.3496zm20.352 0.6289c0.24817 0.2821 0.53614 0.4912 0.8457 0.6582-0.3099-0.1671-0.5972-0.3757-0.8457-0.6582zm-13.285 0.8223c-0.35154 0.1436-0.75902 0.2148-1.2227 0.2148 0.46363 0 0.87105-0.071 1.2227-0.2148z" fill="#263238" fill-opacity=".87"/>
 </g>
</svg>
