<?xml version="1.0" encoding="UTF-8" standalone="no"?>
<svg
   xmlns:dc="http://purl.org/dc/elements/1.1/"
   xmlns:cc="http://creativecommons.org/ns#"
   xmlns:rdf="http://www.w3.org/1999/02/22-rdf-syntax-ns#"
   xmlns:svg="http://www.w3.org/2000/svg"
   xmlns="http://www.w3.org/2000/svg"
   xmlns:sodipodi="http://sodipodi.sourceforge.net/DTD/sodipodi-0.dtd"
   xmlns:inkscape="http://www.inkscape.org/namespaces/inkscape"
   id="Foreground"
   width="42"
   height="42"
   enable-background="new 0 0 16 16"
   version="1.0"
   viewBox="0 0 30.545308 30.545308"
   sodipodi:docname="window-close.svg"
   inkscape:version="1.0.2 (e86c870879, 2021-01-15)">
  <metadata
     id="metadata16">
    <rdf:RDF>
      <cc:Work
         rdf:about="">
        <dc:format>image/svg+xml</dc:format>
        <dc:type
           rdf:resource="http://purl.org/dc/dcmitype/StillImage" />
        <dc:title />
      </cc:Work>
    </rdf:RDF>
  </metadata>
  <sodipodi:namedview
     pagecolor="#ffffff"
     bordercolor="#666666"
     borderopacity="1"
     objecttolerance="10"
     gridtolerance="10"
     guidetolerance="10"
     inkscape:pageopacity="0"
     inkscape:pageshadow="2"
     inkscape:window-width="1366"
     inkscape:window-height="710"
     id="namedview14"
     showgrid="true"
     inkscape:snap-bbox="true"
     inkscape:bbox-nodes="true"
     inkscape:snap-bbox-edge-midpoints="true"
     inkscape:zoom="3.5219357"
     inkscape:cx="-22.037748"
     inkscape:cy="11.544644"
     inkscape:window-x="0"
     inkscape:window-y="28"
     inkscape:window-maximized="1"
     inkscape:current-layer="Foreground"
     inkscape:document-rotation="0">
    <inkscape:grid
       type="xygrid"
       id="grid849" />
  </sodipodi:namedview>
  <defs
     id="defs5">
    <filter
       inkscape:collect="always"
       style="color-interpolation-filters:sRGB"
       id="filter964"
       x="-0.108"
       width="1.216"
       y="-0.108"
       height="1.216">
      <feGaussianBlur
         inkscape:collect="always"
         stdDeviation="1.1127219"
         id="feGaussianBlur966" />
    </filter>
    <filter
       inkscape:collect="always"
       style="color-interpolation-filters:sRGB"
       id="filter1038"
       x="-0.03888"
       width="1.07776"
       y="-0.03888"
       height="1.07776">
      <feGaussianBlur
         inkscape:collect="always"
         stdDeviation="0.40057989"
         id="feGaussianBlur1040" />
    </filter>
  </defs>
  <circle
     cx="15.272654"
     cy="15.272654"
     r="12.363577"
     fill="#f75a61"
     stroke-width="0"
     id="circle968"
     style="fill:#000000;opacity:0.05;filter:url(#filter1038)" />
  <circle
     cx="15.272655"
     cy="15.272655"
     r="12.363577"
     fill="#f75a61"
     stroke-width="0"
     id="circle845"
     style="fill:#000000;filter:url(#filter964);opacity:0.15" />
  <circle
     cx="15.272654"
     cy="14.545384"
     r="12.363577"
     fill="#f75a61"
     stroke-width="0"
     id="circle9" />
  <path
     id="circle840"
     d="M 20.994141 3 A 17 17 0 0 0 4 20 A 17 17 0 0 0 4.0078125 20.503906 A 17 17 0 0 1 21 4 A 17 17 0 0 1 37.992188 20.496094 A 17 17 0 0 0 38 20 A 17 17 0 0 0 21 3 A 17 17 0 0 0 20.994141 3 z "
     transform="scale(0.72726924)"
     style="fill:#ffffff;opacity:0.1" />
  <path
     id="rect841"
     style="opacity:1;fill:#ffffff;stroke-width:0"
     d="m 19.38671,9.4028145 -4.114056,4.1140565 -4.114056,-4.114057 -1.028515,1.028515 4.114057,4.114056 -4.114056,4.114056 1.028513,1.028514 4.114057,-4.114056 4.114056,4.114056 1.028514,-1.028515 -4.114056,-4.114056 4.114056,-4.114056 z" />
</svg>
